<svg class="rich-terminal" viewBox="0 0 1238 635.5999999999999" xmlns="http://www.w3.org/2000/svg">
    <!-- Generated with Rich https://www.textualize.io -->
    <style>

    @font-face {
        font-family: "Fira Code";
        src: local("FiraCode-Regular"),
                url("https://cdnjs.cloudflare.com/ajax/libs/firacode/6.2.0/woff2/FiraCode-Regular.woff2") format("woff2"),
                url("https://cdnjs.cloudflare.com/ajax/libs/firacode/6.2.0/woff/FiraCode-Regular.woff") format("woff");
        font-style: normal;
        font-weight: 400;
    }
    @font-face {
        font-family: "Fira Code";
        src: local("FiraCode-Bold"),
                url("https://cdnjs.cloudflare.com/ajax/libs/firacode/6.2.0/woff2/FiraCode-Bold.woff2") format("woff2"),
                url("https://cdnjs.cloudflare.com/ajax/libs/firacode/6.2.0/woff/FiraCode-Bold.woff") format("woff");
        font-style: bold;
        font-weight: 700;
    }

    .terminal-matrix {
        font-family: Fira Code, monospace;
        font-size: 20px;
        line-height: 24.4px;
        font-variant-east-asian: full-width;
    }

    .terminal-title {
        font-size: 18px;
        font-weight: bold;
        font-family: arial;
    }

    .terminal-r1 { fill: #c5c8c6 }
.terminal-r2 { fill: #e0e0e0 }
.terminal-r3 { fill: #a0a3a6 }
.terminal-r4 { fill: #e0e0e0;font-weight: bold }
.terminal-r5 { fill: #ddedf9;font-weight: bold }
.terminal-r6 { fill: #e8873b }
.terminal-r7 { fill: #6fb0a0 }
.terminal-r8 { fill: #3fb950 }
.terminal-r9 { fill: #0178d4 }
.terminal-r10 { fill: #026fc4 }
.terminal-r11 { fill: #084778 }
.terminal-r12 { fill: #0c304c }
.terminal-r13 { fill: #0a395d }
.terminal-r14 { fill: #084777 }
.terminal-r15 { fill: #055999 }
.terminal-r16 { fill: #0173cc }
.terminal-r17 { fill: #ffa62b;font-weight: bold }
.terminal-r18 { fill: #495259 }
    </style>

    <defs>
    <clipPath id="terminal-clip-terminal">
      <rect x="0" y="0" width="1219.0" height="584.5999999999999" />
    </clipPath>
    <clipPath id="terminal-line-0">
    <rect x="0" y="1.5" width="1220" height="24.65"/>
            </clipPath>
<clipPath id="terminal-line-1">
    <rect x="0" y="25.9" width="1220" height="24.65"/>
            </clipPath>
<clipPath id="terminal-line-2">
    <rect x="0" y="50.3" width="1220" height="24.65"/>
            </clipPath>
<clipPath id="terminal-line-3">
    <rect x="0" y="74.7" width="1220" height="24.65"/>
            </clipPath>
<clipPath id="terminal-line-4">
    <rect x="0" y="99.1" width="1220" height="24.65"/>
            </clipPath>
<clipPath id="terminal-line-5">
    <rect x="0" y="123.5" width="1220" height="24.65"/>
            </clipPath>
<clipPath id="terminal-line-6">
    <rect x="0" y="147.9" width="1220" height="24.65"/>
            </clipPath>
<clipPath id="terminal-line-7">
    <rect x="0" y="172.3" width="1220" height="24.65"/>
            </clipPath>
<clipPath id="terminal-line-8">
    <rect x="0" y="196.7" width="1220" height="24.65"/>
            </clipPath>
<clipPath id="terminal-line-9">
    <rect x="0" y="221.1" width="1220" height="24.65"/>
            </clipPath>
<clipPath id="terminal-line-10">
    <rect x="0" y="245.5" width="1220" height="24.65"/>
            </clipPath>
<clipPath id="terminal-line-11">
    <rect x="0" y="269.9" width="1220" height="24.65"/>
            </clipPath>
<clipPath id="terminal-line-12">
    <rect x="0" y="294.3" width="1220" height="24.65"/>
            </clipPath>
<clipPath id="terminal-line-13">
    <rect x="0" y="318.7" width="1220" height="24.65"/>
            </clipPath>
<clipPath id="terminal-line-14">
    <rect x="0" y="343.1" width="1220" height="24.65"/>
            </clipPath>
<clipPath id="terminal-line-15">
    <rect x="0" y="367.5" width="1220" height="24.65"/>
            </clipPath>
<clipPath id="terminal-line-16">
    <rect x="0" y="391.9" width="1220" height="24.65"/>
            </clipPath>
<clipPath id="terminal-line-17">
    <rect x="0" y="416.3" width="1220" height="24.65"/>
            </clipPath>
<clipPath id="terminal-line-18">
    <rect x="0" y="440.7" width="1220" height="24.65"/>
            </clipPath>
<clipPath id="terminal-line-19">
    <rect x="0" y="465.1" width="1220" height="24.65"/>
            </clipPath>
<clipPath id="terminal-line-20">
    <rect x="0" y="489.5" width="1220" height="24.65"/>
            </clipPath>
<clipPath id="terminal-line-21">
    <rect x="0" y="513.9" width="1220" height="24.65"/>
            </clipPath>
<clipPath id="terminal-line-22">
    <rect x="0" y="538.3" width="1220" height="24.65"/>
            </clipPath>
    </defs>

    <rect fill="#292929" stroke="rgba(255,255,255,0.35)" stroke-width="1" x="1" y="1" width="1236" height="633.6" rx="8"/><text class="terminal-title" fill="#c5c8c6" text-anchor="middle" x="618" y="27">PEBRA&#160;Observatory</text>
            <g transform="translate(26,22)">
            <circle cx="0" cy="0" r="7" fill="#ff5f57"/>
            <circle cx="22" cy="0" r="7" fill="#febc2e"/>
            <circle cx="44" cy="0" r="7" fill="#28c840"/>
            </g>

    <g transform="translate(9, 41)" clip-path="url(#terminal-clip-terminal)">
    <rect fill="#242f38" x="0" y="1.5" width="12.2" height="24.65" shape-rendering="crispEdges"/><rect fill="#242f38" x="12.2" y="1.5" width="12.2" height="24.65" shape-rendering="crispEdges"/><rect fill="#242f38" x="24.4" y="1.5" width="61" height="24.65" shape-rendering="crispEdges"/><rect fill="#242f38" x="85.4" y="1.5" width="12.2" height="24.65" shape-rendering="crispEdges"/><rect fill="#242f38" x="97.6" y="1.5" width="305" height="24.65" shape-rendering="crispEdges"/><rect fill="#242f38" x="402.6" y="1.5" width="207.4" height="24.65" shape-rendering="crispEdges"/><rect fill="#242f38" x="610" y="1.5" width="36.6" height="24.65" shape-rendering="crispEdges"/><rect fill="#242f38" x="646.6" y="1.5" width="146.4" height="24.65" shape-rendering="crispEdges"/><rect fill="#242f38" x="793" y="1.5" width="305" height="24.65" shape-rendering="crispEdges"/><rect fill="#242f38" x="1098" y="1.5" width="12.2" height="24.65" shape-rendering="crispEdges"/><rect fill="#242f38" x="1110.2" y="1.5" width="0" height="24.65" shape-rendering="crispEdges"/><rect fill="#242f38" x="1110.2" y="1.5" width="109.8" height="24.65" shape-rendering="crispEdges"/><rect fill="#121212" x="0" y="25.9" width="610" height="24.65" shape-rendering="crispEdges"/><rect fill="#121212" x="610" y="25.9" width="610" height="24.65" shape-rendering="crispEdges"/><rect fill="#2d3740" x="0" y="50.3" width="97.6" height="24.65" shape-rendering="crispEdges"/><rect fill="#2d3740" x="97.6" y="50.3" width="109.8" height="24.65" shape-rendering="crispEdges"/><rect fill="#2d3740" x="207.4" y="50.3" width="134.2" height="24.65" shape-rendering="crispEdges"/><rect fill="#2d3740" x="341.6" y="50.3" width="207.4" height="24.65" shape-rendering="crispEdges"/><rect fill="#2d3740" x="549" y="50.3" width="85.4" height="24.65" shape-rendering="crispEdges"/><rect fill="#2d3740" x="634.4" y="50.3" width="97.6" height="24.65" shape-rendering="crispEdges"/><rect fill="#2d3740" x="732" y="50.3" width="109.8" height="24.65" shape-rendering="crispEdges"/><rect fill="#2d3740" x="841.8" y="50.3" width="109.8" height="24.65" shape-rendering="crispEdges"/><rect fill="#2d3740" x="951.6" y="50.3" width="268.4" height="24.65" shape-rendering="crispEdges"/><rect fill="#0178d4" x="0" y="74.7" width="97.6" height="24.65" shape-rendering="crispEdges"/><rect fill="#0178d4" x="97.6" y="74.7" width="109.8" height="24.65" shape-rendering="crispEdges"/><rect fill="#0178d4" x="207.4" y="74.7" width="134.2" height="24.65" shape-rendering="crispEdges"/><rect fill="#0178d4" x="341.6" y="74.7" width="207.4" height="24.65" shape-rendering="crispEdges"/><rect fill="#0178d4" x="549" y="74.7" width="85.4" height="24.65" shape-rendering="crispEdges"/><rect fill="#0178d4" x="634.4" y="74.7" width="97.6" height="24.65" shape-rendering="crispEdges"/><rect fill="#0178d4" x="732" y="74.7" width="109.8" height="24.65" shape-rendering="crispEdges"/><rect fill="#0178d4" x="841.8" y="74.7" width="109.8" height="24.65" shape-rendering="crispEdges"/><rect fill="#0178d4" x="951.6" y="74.7" width="268.4" height="24.65" shape-rendering="crispEdges"/><rect fill="#0c2130" x="0" y="99.1" width="97.6" height="24.65" shape-rendering="crispEdges"/><rect fill="#272727" x="97.6" y="99.1" width="109.8" height="24.65" shape-rendering="crispEdges"/><rect fill="#272727" x="207.4" y="99.1" width="134.2" height="24.65" shape-rendering="crispEdges"/><rect fill="#272727" x="341.6" y="99.1" width="12.2" height="24.65" shape-rendering="crispEdges"/><rect fill="#272727" x="353.8" y="99.1" width="134.2" height="24.65" shape-rendering="crispEdges"/><rect fill="#272727" x="488" y="99.1" width="61" height="24.65" shape-rendering="crispEdges"/><rect fill="#272727" x="549" y="99.1" width="85.4" height="24.65" shape-rendering="crispEdges"/><rect fill="#272727" x="634.4" y="99.1" width="97.6" height="24.65" shape-rendering="crispEdges"/><rect fill="#272727" x="732" y="99.1" width="109.8" height="24.65" shape-rendering="crispEdges"/><rect fill="#272727" x="841.8" y="99.1" width="109.8" height="24.65" shape-rendering="crispEdges"/><rect fill="#272727" x="951.6" y="99.1" width="268.4" height="24.65" shape-rendering="crispEdges"/><rect fill="#0c2130" x="0" y="123.5" width="97.6" height="24.65" shape-rendering="crispEdges"/><rect fill="#1c1c1c" x="97.6" y="123.5" width="109.8" height="24.65" shape-rendering="crispEdges"/><rect fill="#1c1c1c" x="207.4" y="123.5" width="134.2" height="24.65" shape-rendering="crispEdges"/><rect fill="#1c1c1c" x="341.6" y="123.5" width="12.2" height="24.65" shape-rendering="crispEdges"/><rect fill="#1c1c1c" x="353.8" y="123.5" width="183" height="24.65" shape-rendering="crispEdges"/><rect fill="#1c1c1c" x="536.8" y="123.5" width="12.2" height="24.65" shape-rendering="crispEdges"/><rect fill="#1c1c1c" x="549" y="123.5" width="85.4" height="24.65" shape-rendering="crispEdges"/><rect fill="#1c1c1c" x="634.4" y="123.5" width="97.6" height="24.65" shape-rendering="crispEdges"/><rect fill="#1c1c1c" x="732" y="123.5" width="109.8" height="24.65" shape-rendering="crispEdges"/><rect fill="#1c1c1c" x="841.8" y="123.5" width="109.8" height="24.65" shape-rendering="crispEdges"/><rect fill="#1c1c1c" x="951.6" y="123.5" width="268.4" height="24.65" shape-rendering="crispEdges"/><rect fill="#0c2130" x="0" y="147.9" width="97.6" height="24.65" shape-rendering="crispEdges"/><rect fill="#272727" x="97.6" y="147.9" width="109.8" height="24.65" shape-rendering="crispEdges"/><rect fill="#272727" x="207.4" y="147.9" width="134.2" height="24.65" shape-rendering="crispEdges"/><rect fill="#272727" x="341.6" y="147.9" width="12.2" height="24.65" shape-rendering="crispEdges"/><rect fill="#272727" x="353.8" y="147.9" width="109.8" height="24.65" shape-rendering="crispEdges"/><rect fill="#272727" x="463.6" y="147.9" width="85.4" height="24.65" shape-rendering="crispEdges"/><rect fill="#272727" x="549" y="147.9" width="85.4" height="24.65" shape-rendering="crispEdges"/><rect fill="#272727" x="634.4" y="147.9" width="97.6" height="24.65" shape-rendering="crispEdges"/><rect fill="#272727" x="732" y="147.9" width="109.8" height="24.65" shape-rendering="crispEdges"/><rect fill="#272727" x="841.8" y="147.9" width="109.8" height="24.65" shape-rendering="crispEdges"/><rect fill="#272727" x="951.6" y="147.9" width="268.4" height="24.65" shape-rendering="crispEdges"/><rect fill="#272727" x="0" y="172.3" width="1220" height="24.65" shape-rendering="crispEdges"/><rect fill="#272727" x="0" y="196.7" width="1220" height="24.65" shape-rendering="crispEdges"/><rect fill="#272727" x="0" y="221.1" width="1220" height="24.65" shape-rendering="crispEdges"/><rect fill="#272727" x="0" y="245.5" width="1220" height="24.65" shape-rendering="crispEdges"/><rect fill="#272727" x="0" y="269.9" width="1220" height="24.65" shape-rendering="crispEdges"/><rect fill="#272727" x="0" y="294.3" width="1220" height="24.65" shape-rendering="crispEdges"/><rect fill="#272727" x="0" y="318.7" width="1220" height="24.65" shape-rendering="crispEdges"/><rect fill="#272727" x="0" y="343.1" width="1220" height="24.65" shape-rendering="crispEdges"/><rect fill="#272727" x="0" y="367.5" width="1220" height="24.65" shape-rendering="crispEdges"/><rect fill="#272727" x="0" y="391.9" width="1220" height="24.65" shape-rendering="crispEdges"/><rect fill="#272727" x="0" y="416.3" width="1220" height="24.65" shape-rendering="crispEdges"/><rect fill="#272727" x="0" y="440.7" width="1220" height="24.65" shape-rendering="crispEdges"/><rect fill="#272727" x="0" y="465.1" width="1220" height="24.65" shape-rendering="crispEdges"/><rect fill="#121212" x="0" y="489.5" width="36.6" height="24.65" shape-rendering="crispEdges"/><rect fill="#121212" x="36.6" y="489.5" width="134.2" height="24.65" shape-rendering="crispEdges"/><rect fill="#121212" x="170.8" y="489.5" width="158.6" height="24.65" shape-rendering="crispEdges"/><rect fill="#121212" x="329.4" y="489.5" width="146.4" height="24.65" shape-rendering="crispEdges"/><rect fill="#121212" x="475.8" y="489.5" width="158.6" height="24.65" shape-rendering="crispEdges"/><rect fill="#121212" x="634.4" y="489.5" width="146.4" height="24.65" shape-rendering="crispEdges"/><rect fill="#121212" x="780.8" y="489.5" width="402.6" height="24.65" shape-rendering="crispEdges"/><rect fill="#121212" x="1183.4" y="489.5" width="36.6" height="24.65" shape-rendering="crispEdges"/><rect fill="#121212" x="0" y="513.9" width="158.6" height="24.65" shape-rendering="crispEdges"/><rect fill="#121212" x="158.6" y="513.9" width="12.2" height="24.65" shape-rendering="crispEdges"/><rect fill="#121212" x="170.8" y="513.9" width="158.6" height="24.65" shape-rendering="crispEdges"/><rect fill="#121212" x="329.4" y="513.9" width="146.4" height="24.65" shape-rendering="crispEdges"/><rect fill="#121212" x="475.8" y="513.9" width="158.6" height="24.65" shape-rendering="crispEdges"/><rect fill="#121212" x="634.4" y="513.9" width="146.4" height="24.65" shape-rendering="crispEdges"/><rect fill="#121212" x="780.8" y="513.9" width="402.6" height="24.65" shape-rendering="crispEdges"/><rect fill="#121212" x="1183.4" y="513.9" width="36.6" height="24.65" shape-rendering="crispEdges"/><rect fill="#121212" x="0" y="538.3" width="85.4" height="24.65" shape-rendering="crispEdges"/><rect fill="#121212" x="85.4" y="538.3" width="85.4" height="24.65" shape-rendering="crispEdges"/><rect fill="#121212" x="170.8" y="538.3" width="158.6" height="24.65" shape-rendering="crispEdges"/><rect fill="#121212" x="329.4" y="538.3" width="146.4" height="24.65" shape-rendering="crispEdges"/><rect fill="#121212" x="475.8" y="538.3" width="158.6" height="24.65" shape-rendering="crispEdges"/><rect fill="#121212" x="634.4" y="538.3" width="146.4" height="24.65" shape-rendering="crispEdges"/><rect fill="#121212" x="780.8" y="538.3" width="402.6" height="24.65" shape-rendering="crispEdges"/><rect fill="#121212" x="1183.4" y="538.3" width="36.6" height="24.65" shape-rendering="crispEdges"/><rect fill="#242f38" x="0" y="562.7" width="36.6" height="24.65" shape-rendering="crispEdges"/><rect fill="#242f38" x="36.6" y="562.7" width="97.6" height="24.65" shape-rendering="crispEdges"/><rect fill="#242f38" x="134.2" y="562.7" width="36.6" height="24.65" shape-rendering="crispEdges"/><rect fill="#242f38" x="170.8" y="562.7" width="61" height="24.65" shape-rendering="crispEdges"/><rect fill="#242f38" x="231.8" y="562.7" width="36.6" height="24.65" shape-rendering="crispEdges"/><rect fill="#242f38" x="268.4" y="562.7" width="158.6" height="24.65" shape-rendering="crispEdges"/><rect fill="#242f38" x="427" y="562.7" width="646.6" height="24.65" shape-rendering="crispEdges"/><rect fill="#242f38" x="1073.6" y="562.7" width="12.2" height="24.65" shape-rendering="crispEdges"/><rect fill="#242f38" x="1085.8" y="562.7" width="24.4" height="24.65" shape-rendering="crispEdges"/><rect fill="#242f38" x="1110.2" y="562.7" width="97.6" height="24.65" shape-rendering="crispEdges"/><rect fill="#242f38" x="1207.8" y="562.7" width="12.2" height="24.65" shape-rendering="crispEdges"/>
    <g class="terminal-matrix">
    <text class="terminal-r2" x="12.2" y="20" textLength="12.2" clip-path="url(#terminal-line-0)">⭘</text><text class="terminal-r2" x="402.6" y="20" textLength="207.4" clip-path="url(#terminal-line-0)">PEBRA&#160;Observatory</text><text class="terminal-r3" x="610" y="20" textLength="36.6" clip-path="url(#terminal-line-0)">&#160;—&#160;</text><text class="terminal-r3" x="646.6" y="20" textLength="146.4" clip-path="url(#terminal-line-0)">0.1.0&#160;·&#160;test</text><text class="terminal-r1" x="1220" y="20" textLength="12.2" clip-path="url(#terminal-line-0)">
</text><text class="terminal-r2" x="0" y="44.4" textLength="610" clip-path="url(#terminal-line-1)">repo&#160;r&#160;·&#160;HEAD&#160;dddd444&#160;·&#160;store&#160;chain&#160;BROKEN&#160;·&#160;4&#160;asm</text><text class="terminal-r1" x="1220" y="44.4" textLength="12.2" clip-path="url(#terminal-line-1)">
</text><text class="terminal-r4" x="0" y="68.8" textLength="97.6" clip-path="url(#terminal-line-2)">&#160;asm&#160;id&#160;</text><text class="terminal-r4" x="97.6" y="68.8" textLength="109.8" clip-path="url(#terminal-line-2)">&#160;commit&#160;&#160;</text><text class="terminal-r4" x="207.4" y="68.8" textLength="134.2" clip-path="url(#terminal-line-2)">&#160;gate-lane&#160;</text><text class="terminal-r4" x="341.6" y="68.8" textLength="207.4" clip-path="url(#terminal-line-2)">&#160;decision&#160;&#160;&#160;&#160;&#160;&#160;&#160;&#160;</text><text class="terminal-r4" x="549" y="68.8" textLength="85.4" clip-path="url(#terminal-line-2)">&#160;rau&#160;&#160;&#160;</text><text class="terminal-r4" x="634.4" y="68.8" textLength="97.6" clip-path="url(#terminal-line-2)">&#160;e.loss&#160;</text><text class="terminal-r4" x="732" y="68.8" textLength="109.8" clip-path="url(#terminal-line-2)">&#160;benefit&#160;</text><text class="terminal-r4" x="841.8" y="68.8" textLength="109.8" clip-path="url(#terminal-line-2)">&#160;status&#160;&#160;</text><text class="terminal-r1" x="1220" y="68.8" textLength="12.2" clip-path="url(#terminal-line-2)">
</text><text class="terminal-r5" x="0" y="93.2" textLength="97.6" clip-path="url(#terminal-line-3)">&#160;asm_4&#160;&#160;</text><text class="terminal-r5" x="97.6" y="93.2" textLength="109.8" clip-path="url(#terminal-line-3)">&#160;dddd444&#160;</text><text class="terminal-r5" x="207.4" y="93.2" textLength="134.2" clip-path="url(#terminal-line-3)">&#160;···●│····&#160;</text><text class="terminal-r5" x="341.6" y="93.2" textLength="207.4" clip-path="url(#terminal-line-3)">&#160;✕&#160;Reject&#160;&#160;&#160;&#160;&#160;&#160;&#160;&#160;</text><text class="terminal-r5" x="549" y="93.2" textLength="85.4" clip-path="url(#terminal-line-3)">&#160;-0.31&#160;</text><text class="terminal-r5" x="634.4" y="93.2" textLength="97.6" clip-path="url(#terminal-line-3)">&#160;0.36&#160;&#160;&#160;</text><text class="terminal-r5" x="732" y="93.2" textLength="109.8" clip-path="url(#terminal-line-3)">&#160;0.20&#160;&#160;&#160;&#160;</text><text class="terminal-r5" x="841.8" y="93.2" textLength="109.8" clip-path="url(#terminal-line-3)">&#160;pending&#160;</text><text class="terminal-r1" x="1220" y="93.2" textLength="12.2" clip-path="url(#terminal-line-3)">
</text><text class="terminal-r2" x="0" y="117.6" textLength="97.6" clip-path="url(#terminal-line-4)">&#160;asm_3&#160;&#160;</text><text class="terminal-r2" x="97.6" y="117.6" textLength="109.8" clip-path="url(#terminal-line-4)">&#160;cccc333&#160;</text><text class="terminal-r2" x="207.4" y="117.6" textLength="134.2" clip-path="url(#terminal-line-4)">&#160;···●│····&#160;</text><text class="terminal-r6" x="353.8" y="117.6" textLength="134.2" clip-path="url(#terminal-line-4)">‖&#160;Ask&#160;human</text><text class="terminal-r2" x="549" y="117.6" textLength="85.4" clip-path="url(#terminal-line-4)">&#160;-0.14&#160;</text><text class="terminal-r2" x="634.4" y="117.6" textLength="97.6" clip-path="url(#terminal-line-4)">&#160;0.15&#160;&#160;&#160;</text><text class="terminal-r2" x="732" y="117.6" textLength="109.8" clip-path="url(#terminal-line-4)">&#160;0.53&#160;&#160;&#160;&#160;</text><text class="terminal-r2" x="841.8" y="117.6" textLength="109.8" clip-path="url(#terminal-line-4)">&#160;pending&#160;</text><text class="terminal-r1" x="1220" y="117.6" textLength="12.2" clip-path="url(#terminal-line-4)">
</text><text class="terminal-r2" x="0" y="142" textLength="97.6" clip-path="url(#terminal-line-5)">&#160;asm_2&#160;&#160;</text><text class="terminal-r2" x="97.6" y="142" textLength="109.8" clip-path="url(#terminal-line-5)">&#160;bbbb222&#160;</text><text class="terminal-r2" x="207.4" y="142" textLength="134.2" clip-path="url(#terminal-line-5)">&#160;····│●···&#160;</text><text class="terminal-r7" x="353.8" y="142" textLength="183" clip-path="url(#terminal-line-5)">◇&#160;Inspect&#160;first</text><text class="terminal-r2" x="549" y="142" textLength="85.4" clip-path="url(#terminal-line-5)">&#160;+0.15&#160;</text><text class="terminal-r2" x="634.4" y="142" textLength="97.6" clip-path="url(#terminal-line-5)">&#160;0.09&#160;&#160;&#160;</text><text class="terminal-r2" x="732" y="142" textLength="109.8" clip-path="url(#terminal-line-5)">&#160;0.40&#160;&#160;&#160;&#160;</text><text class="terminal-r2" x="841.8" y="142" textLength="109.8" clip-path="url(#terminal-line-5)">&#160;pending&#160;</text><text class="terminal-r1" x="1220" y="142" textLength="12.2" clip-path="url(#terminal-line-5)">
</text><text class="terminal-r2" x="0" y="166.4" textLength="97.6" clip-path="url(#terminal-line-6)">&#160;asm_1&#160;&#160;</text><text class="terminal-r2" x="97.6" y="166.4" textLength="109.8" clip-path="url(#terminal-line-6)">&#160;aaaa111&#160;</text><text class="terminal-r2" x="207.4" y="166.4" textLength="134.2" clip-path="url(#terminal-line-6)">&#160;····│●···&#160;</text><text class="terminal-r8" x="353.8" y="166.4" textLength="109.8" clip-path="url(#terminal-line-6)">▸&#160;Proceed</text><text class="terminal-r2" x="549" y="166.4" textLength="85.4" clip-path="url(#terminal-line-6)">&#160;+0.21&#160;</text><text class="terminal-r2" x="634.4" y="166.4" textLength="97.6" clip-path="url(#terminal-line-6)">&#160;0.05&#160;&#160;&#160;</text><text class="terminal-r2" x="732" y="166.4" textLength="109.8" clip-path="url(#terminal-line-6)">&#160;0.55&#160;&#160;&#160;&#160;</text><text class="terminal-r2" x="841.8" y="166.4" textLength="109.8" clip-path="url(#terminal-line-6)">&#160;pending&#160;</text><text class="terminal-r1" x="1220" y="166.4" textLength="12.2" clip-path="url(#terminal-line-6)">
</text><text class="terminal-r1" x="1220" y="190.8" textLength="12.2" clip-path="url(#terminal-line-7)">
</text><text class="terminal-r1" x="1220" y="215.2" textLength="12.2" clip-path="url(#terminal-line-8)">
</text><text class="terminal-r1" x="1220" y="239.6" textLength="12.2" clip-path="url(#terminal-line-9)">
</text><text class="terminal-r1" x="1220" y="264" textLength="12.2" clip-path="url(#terminal-line-10)">
</text><text class="terminal-r1" x="1220" y="288.4" textLength="12.2" clip-path="url(#terminal-line-11)">
</text><text class="terminal-r1" x="1220" y="312.8" textLength="12.2" clip-path="url(#terminal-line-12)">
</text><text class="terminal-r1" x="1220" y="337.2" textLength="12.2" clip-path="url(#terminal-line-13)">
</text><text class="terminal-r1" x="1220" y="361.6" textLength="12.2" clip-path="url(#terminal-line-14)">
</text><text class="terminal-r1" x="1220" y="386" textLength="12.2" clip-path="url(#terminal-line-15)">
</text><text class="terminal-r1" x="1220" y="410.4" textLength="12.2" clip-path="url(#terminal-line-16)">
</text><text class="terminal-r1" x="1220" y="434.8" textLength="12.2" clip-path="url(#terminal-line-17)">
</text><text class="terminal-r1" x="1220" y="459.2" textLength="12.2" clip-path="url(#terminal-line-18)">
</text><text class="terminal-r1" x="1220" y="483.6" textLength="12.2" clip-path="url(#terminal-line-19)">
</text><text class="terminal-r2" x="0" y="508" textLength="36.6" clip-path="url(#terminal-line-20)">RAU</text><text class="terminal-r9" x="170.8" y="508" textLength="158.6" clip-path="url(#terminal-line-20)">█████████████</text><text class="terminal-r10" x="329.4" y="508" textLength="146.4" clip-path="url(#terminal-line-20)">▇▇▇▇▇▇▇▇▇▇▇▇</text><text class="terminal-r11" x="475.8" y="508" textLength="158.6" clip-path="url(#terminal-line-20)">▃▃▃▃▃▃▃▃▃▃▃▃▃</text><text class="terminal-r12" x="634.4" y="508" textLength="146.4" clip-path="url(#terminal-line-20)">▁▁▁▁▁▁▁▁▁▁▁▁</text><text class="terminal-r2" x="780.8" y="508" textLength="402.6" clip-path="url(#terminal-line-20)">now&#160;-0.31&#160;&#160;&#160;min&#160;-0.31&#160;&#160;&#160;max&#160;+0.21</text><text class="terminal-r1" x="1220" y="508" textLength="12.2" clip-path="url(#terminal-line-20)">
</text><text class="terminal-r2" x="0" y="532.4" textLength="158.6" clip-path="url(#terminal-line-21)">Expected&#160;loss</text><text class="terminal-r12" x="170.8" y="532.4" textLength="158.6" clip-path="url(#terminal-line-21)">▁▁▁▁▁▁▁▁▁▁▁▁▁</text><text class="terminal-r13" x="329.4" y="532.4" textLength="146.4" clip-path="url(#terminal-line-21)">▁▁▁▁▁▁▁▁▁▁▁▁</text><text class="terminal-r14" x="475.8" y="532.4" textLength="158.6" clip-path="url(#terminal-line-21)">▃▃▃▃▃▃▃▃▃▃▃▃▃</text><text class="terminal-r9" x="634.4" y="532.4" textLength="146.4" clip-path="url(#terminal-line-21)">████████████</text><text class="terminal-r2" x="780.8" y="532.4" textLength="402.6" clip-path="url(#terminal-line-21)">now&#160;+0.36&#160;&#160;&#160;min&#160;+0.05&#160;&#160;&#160;max&#160;+0.36</text><text class="terminal-r1" x="1220" y="532.4" textLength="12.2" clip-path="url(#terminal-line-21)">
</text><text class="terminal-r2" x="0" y="556.8" textLength="85.4" clip-path="url(#terminal-line-22)">Benefit</text><text class="terminal-r9" x="170.8" y="556.8" textLength="158.6" clip-path="url(#terminal-line-22)">█████████████</text><text class="terminal-r15" x="329.4" y="556.8" textLength="146.4" clip-path="url(#terminal-line-22)">▅▅▅▅▅▅▅▅▅▅▅▅</text><text class="terminal-r16" x="475.8" y="556.8" textLength="158.6" clip-path="url(#terminal-line-22)">▇▇▇▇▇▇▇▇▇▇▇▇▇</text><text class="terminal-r12" x="634.4" y="556.8" textLength="146.4" clip-path="url(#terminal-line-22)">▁▁▁▁▁▁▁▁▁▁▁▁</text><text class="terminal-r2" x="780.8" y="556.8" textLength="402.6" clip-path="url(#terminal-line-22)">now&#160;+0.20&#160;&#160;&#160;min&#160;+0.20&#160;&#160;&#160;max&#160;+0.55</text><text class="terminal-r1" x="1220" y="556.8" textLength="12.2" clip-path="url(#terminal-line-22)">
</text><text class="terminal-r17" x="0" y="581.2" textLength="36.6" clip-path="url(#terminal-line-23)">&#160;r&#160;</text><text class="terminal-r2" x="36.6" y="581.2" textLength="97.6" clip-path="url(#terminal-line-23)">Refresh&#160;</text><text class="terminal-r17" x="134.2" y="581.2" textLength="36.6" clip-path="url(#terminal-line-23)">&#160;q&#160;</text><text class="terminal-r2" x="170.8" y="581.2" textLength="61" clip-path="url(#terminal-line-23)">Quit&#160;</text><text class="terminal-r17" x="231.8" y="581.2" textLength="36.6" clip-path="url(#terminal-line-23)">&#160;?&#160;</text><text class="terminal-r2" x="268.4" y="581.2" textLength="158.6" clip-path="url(#terminal-line-23)">pebra&#160;--help&#160;</text><text class="terminal-r18" x="1073.6" y="581.2" textLength="12.2" clip-path="url(#terminal-line-23)">▏</text><text class="terminal-r17" x="1085.8" y="581.2" textLength="24.4" clip-path="url(#terminal-line-23)">^p</text><text class="terminal-r2" x="1110.2" y="581.2" textLength="97.6" clip-path="url(#terminal-line-23)">&#160;palette</text>
    </g>
    </g>
</svg>
