<svg class="rich-terminal" viewBox="0 0 1116 538.0" xmlns="http://www.w3.org/2000/svg">
    <!-- Generated with Rich https://www.textualize.io -->
    <style>

    @font-face {
        font-family: "Fira Code";
        src: local("FiraCode-Regular"),
                url("https://cdnjs.cloudflare.com/ajax/libs/firacode/6.2.0/woff2/FiraCode-Regular.woff2") format("woff2"),
                url("https://cdnjs.cloudflare.com/ajax/libs/firacode/6.2.0/woff/FiraCode-Regular.woff") format("woff");
        font-style: normal;
        font-weight: 400;
    }
    @font-face {
        font-family: "Fira Code";
        src: local("FiraCode-Bold"),
                url("https://cdnjs.cloudflare.com/ajax/libs/firacode/6.2.0/woff2/FiraCode-Bold.woff2") format("woff2"),
                url("https://cdnjs.cloudflare.com/ajax/libs/firacode/6.2.0/woff/FiraCode-Bold.woff") format("woff");
        font-style: bold;
        font-weight: 700;
    }

    .terminal-matrix {
        font-family: Fira Code, monospace;
        font-size: 20px;
        line-height: 24.4px;
        font-variant-east-asian: full-width;
    }

    .terminal-title {
        font-size: 18px;
        font-weight: bold;
        font-family: arial;
    }

    .terminal-r1 { fill: #c5c8c6 }
.terminal-r2 { fill: #e0e0e0 }
.terminal-r3 { fill: #a0a3a6 }
.terminal-r4 { fill: #e0e0e0;font-weight: bold }
.terminal-r5 { fill: #272727 }
.terminal-r6 { fill: #003054 }
.terminal-r7 { fill: #6b727c }
.terminal-r8 { fill: #0c304c }
.terminal-r9 { fill: #ffa62b;font-weight: bold }
.terminal-r10 { fill: #495259 }
    </style>

    <defs>
    <clipPath id="terminal-clip-terminal">
      <rect x="0" y="0" width="1097.0" height="487.0" />
    </clipPath>
    <clipPath id="terminal-line-0">
    <rect x="0" y="1.5" width="1098" height="24.65"/>
            </clipPath>
<clipPath id="terminal-line-1">
    <rect x="0" y="25.9" width="1098" height="24.65"/>
            </clipPath>
<clipPath id="terminal-line-2">
    <rect x="0" y="50.3" width="1098" height="24.65"/>
            </clipPath>
<clipPath id="terminal-line-3">
    <rect x="0" y="74.7" width="1098" height="24.65"/>
            </clipPath>
<clipPath id="terminal-line-4">
    <rect x="0" y="99.1" width="1098" height="24.65"/>
            </clipPath>
<clipPath id="terminal-line-5">
    <rect x="0" y="123.5" width="1098" height="24.65"/>
            </clipPath>
<clipPath id="terminal-line-6">
    <rect x="0" y="147.9" width="1098" height="24.65"/>
            </clipPath>
<clipPath id="terminal-line-7">
    <rect x="0" y="172.3" width="1098" height="24.65"/>
            </clipPath>
<clipPath id="terminal-line-8">
    <rect x="0" y="196.7" width="1098" height="24.65"/>
            </clipPath>
<clipPath id="terminal-line-9">
    <rect x="0" y="221.1" width="1098" height="24.65"/>
            </clipPath>
<clipPath id="terminal-line-10">
    <rect x="0" y="245.5" width="1098" height="24.65"/>
            </clipPath>
<clipPath id="terminal-line-11">
    <rect x="0" y="269.9" width="1098" height="24.65"/>
            </clipPath>
<clipPath id="terminal-line-12">
    <rect x="0" y="294.3" width="1098" height="24.65"/>
            </clipPath>
<clipPath id="terminal-line-13">
    <rect x="0" y="318.7" width="1098" height="24.65"/>
            </clipPath>
<clipPath id="terminal-line-14">
    <rect x="0" y="343.1" width="1098" height="24.65"/>
            </clipPath>
<clipPath id="terminal-line-15">
    <rect x="0" y="367.5" width="1098" height="24.65"/>
            </clipPath>
<clipPath id="terminal-line-16">
    <rect x="0" y="391.9" width="1098" height="24.65"/>
            </clipPath>
<clipPath id="terminal-line-17">
    <rect x="0" y="416.3" width="1098" height="24.65"/>
            </clipPath>
<clipPath id="terminal-line-18">
    <rect x="0" y="440.7" width="1098" height="24.65"/>
            </clipPath>
    </defs>

    <rect fill="#292929" stroke="rgba(255,255,255,0.35)" stroke-width="1" x="1" y="1" width="1114" height="536" rx="8"/><text class="terminal-title" fill="#c5c8c6" text-anchor="middle" x="557" y="27">PEBRA&#160;Observatory</text>
            <g transform="translate(26,22)">
            <circle cx="0" cy="0" r="7" fill="#ff5f57"/>
            <circle cx="22" cy="0" r="7" fill="#febc2e"/>
            <circle cx="44" cy="0" r="7" fill="#28c840"/>
            </g>

    <g transform="translate(9, 41)" clip-path="url(#terminal-clip-terminal)">
    <rect fill="#242f38" x="0" y="1.5" width="12.2" height="24.65" shape-rendering="crispEdges"/><rect fill="#242f38" x="12.2" y="1.5" width="12.2" height="24.65" shape-rendering="crispEdges"/><rect fill="#242f38" x="24.4" y="1.5" width="61" height="24.65" shape-rendering="crispEdges"/><rect fill="#242f38" x="85.4" y="1.5" width="12.2" height="24.65" shape-rendering="crispEdges"/><rect fill="#242f38" x="97.6" y="1.5" width="244" height="24.65" shape-rendering="crispEdges"/><rect fill="#242f38" x="341.6" y="1.5" width="207.4" height="24.65" shape-rendering="crispEdges"/><rect fill="#242f38" x="549" y="1.5" width="36.6" height="24.65" shape-rendering="crispEdges"/><rect fill="#242f38" x="585.6" y="1.5" width="146.4" height="24.65" shape-rendering="crispEdges"/><rect fill="#242f38" x="732" y="1.5" width="244" height="24.65" shape-rendering="crispEdges"/><rect fill="#242f38" x="976" y="1.5" width="12.2" height="24.65" shape-rendering="crispEdges"/><rect fill="#242f38" x="988.2" y="1.5" width="0" height="24.65" shape-rendering="crispEdges"/><rect fill="#242f38" x="988.2" y="1.5" width="109.8" height="24.65" shape-rendering="crispEdges"/><rect fill="#121212" x="0" y="25.9" width="622.2" height="24.65" shape-rendering="crispEdges"/><rect fill="#121212" x="622.2" y="25.9" width="475.8" height="24.65" shape-rendering="crispEdges"/><rect fill="#2d3740" x="0" y="50.3" width="48.8" height="24.65" shape-rendering="crispEdges"/><rect fill="#2d3740" x="48.8" y="50.3" width="244" height="24.65" shape-rendering="crispEdges"/><rect fill="#2d3740" x="292.8" y="50.3" width="244" height="24.65" shape-rendering="crispEdges"/><rect fill="#2d3740" x="536.8" y="50.3" width="61" height="24.65" shape-rendering="crispEdges"/><rect fill="#2d3740" x="597.8" y="50.3" width="73.2" height="24.65" shape-rendering="crispEdges"/><rect fill="#2d3740" x="671" y="50.3" width="109.8" height="24.65" shape-rendering="crispEdges"/><rect fill="#2d3740" x="780.8" y="50.3" width="97.6" height="24.65" shape-rendering="crispEdges"/><rect fill="#2d3740" x="878.4" y="50.3" width="85.4" height="24.65" shape-rendering="crispEdges"/><rect fill="#2d3740" x="963.8" y="50.3" width="97.6" height="24.65" shape-rendering="crispEdges"/><rect fill="#2d3740" x="1061.4" y="50.3" width="36.6" height="24.65" shape-rendering="crispEdges"/><rect fill="#272727" x="0" y="74.7" width="1098" height="24.65" shape-rendering="crispEdges"/><rect fill="#272727" x="0" y="99.1" width="1098" height="24.65" shape-rendering="crispEdges"/><rect fill="#272727" x="0" y="123.5" width="1098" height="24.65" shape-rendering="crispEdges"/><rect fill="#272727" x="0" y="147.9" width="1098" height="24.65" shape-rendering="crispEdges"/><rect fill="#272727" x="0" y="172.3" width="1098" height="24.65" shape-rendering="crispEdges"/><rect fill="#272727" x="0" y="196.7" width="1098" height="24.65" shape-rendering="crispEdges"/><rect fill="#272727" x="0" y="221.1" width="1098" height="24.65" shape-rendering="crispEdges"/><rect fill="#272727" x="0" y="245.5" width="1098" height="24.65" shape-rendering="crispEdges"/><rect fill="#272727" x="0" y="269.9" width="1098" height="24.65" shape-rendering="crispEdges"/><rect fill="#272727" x="0" y="294.3" width="1098" height="24.65" shape-rendering="crispEdges"/><rect fill="#003054" x="0" y="318.7" width="597.8" height="24.65" shape-rendering="crispEdges"/><rect fill="#000000" x="597.8" y="318.7" width="12.2" height="24.65" shape-rendering="crispEdges"/><rect fill="#000000" x="610" y="318.7" width="488" height="24.65" shape-rendering="crispEdges"/><rect fill="#121212" x="0" y="343.1" width="329.4" height="24.65" shape-rendering="crispEdges"/><rect fill="#121212" x="329.4" y="343.1" width="768.6" height="24.65" shape-rendering="crispEdges"/><rect fill="#121212" x="0" y="367.5" width="36.6" height="24.65" shape-rendering="crispEdges"/><rect fill="#121212" x="36.6" y="367.5" width="134.2" height="24.65" shape-rendering="crispEdges"/><rect fill="#121212" x="170.8" y="367.5" width="488" height="24.65" shape-rendering="crispEdges"/><rect fill="#121212" x="658.8" y="367.5" width="12.2" height="24.65" shape-rendering="crispEdges"/><rect fill="#121212" x="671" y="367.5" width="427" height="24.65" shape-rendering="crispEdges"/><rect fill="#121212" x="0" y="391.9" width="158.6" height="24.65" shape-rendering="crispEdges"/><rect fill="#121212" x="158.6" y="391.9" width="12.2" height="24.65" shape-rendering="crispEdges"/><rect fill="#121212" x="170.8" y="391.9" width="488" height="24.65" shape-rendering="crispEdges"/><rect fill="#121212" x="658.8" y="391.9" width="12.2" height="24.65" shape-rendering="crispEdges"/><rect fill="#121212" x="671" y="391.9" width="427" height="24.65" shape-rendering="crispEdges"/><rect fill="#121212" x="0" y="416.3" width="85.4" height="24.65" shape-rendering="crispEdges"/><rect fill="#121212" x="85.4" y="416.3" width="85.4" height="24.65" shape-rendering="crispEdges"/><rect fill="#121212" x="170.8" y="416.3" width="488" height="24.65" shape-rendering="crispEdges"/><rect fill="#121212" x="658.8" y="416.3" width="12.2" height="24.65" shape-rendering="crispEdges"/><rect fill="#121212" x="671" y="416.3" width="427" height="24.65" shape-rendering="crispEdges"/><rect fill="#121212" x="0" y="440.7" width="585.6" height="24.65" shape-rendering="crispEdges"/><rect fill="#121212" x="585.6" y="440.7" width="512.4" height="24.65" shape-rendering="crispEdges"/><rect fill="#242f38" x="0" y="465.1" width="36.6" height="24.65" shape-rendering="crispEdges"/><rect fill="#242f38" x="36.6" y="465.1" width="97.6" height="24.65" shape-rendering="crispEdges"/><rect fill="#242f38" x="134.2" y="465.1" width="36.6" height="24.65" shape-rendering="crispEdges"/><rect fill="#242f38" x="170.8" y="465.1" width="170.8" height="24.65" shape-rendering="crispEdges"/><rect fill="#242f38" x="341.6" y="465.1" width="36.6" height="24.65" shape-rendering="crispEdges"/><rect fill="#242f38" x="378.2" y="465.1" width="61" height="24.65" shape-rendering="crispEdges"/><rect fill="#242f38" x="439.2" y="465.1" width="36.6" height="24.65" shape-rendering="crispEdges"/><rect fill="#242f38" x="475.8" y="465.1" width="158.6" height="24.65" shape-rendering="crispEdges"/><rect fill="#242f38" x="634.4" y="465.1" width="317.2" height="24.65" shape-rendering="crispEdges"/><rect fill="#242f38" x="951.6" y="465.1" width="12.2" height="24.65" shape-rendering="crispEdges"/><rect fill="#242f38" x="963.8" y="465.1" width="24.4" height="24.65" shape-rendering="crispEdges"/><rect fill="#242f38" x="988.2" y="465.1" width="97.6" height="24.65" shape-rendering="crispEdges"/><rect fill="#242f38" x="1085.8" y="465.1" width="12.2" height="24.65" shape-rendering="crispEdges"/>
    <g class="terminal-matrix">
    <text class="terminal-r2" x="12.2" y="20" textLength="12.2" clip-path="url(#terminal-line-0)">⭘</text><text class="terminal-r2" x="341.6" y="20" textLength="207.4" clip-path="url(#terminal-line-0)">PEBRA&#160;Observatory</text><text class="terminal-r3" x="549" y="20" textLength="36.6" clip-path="url(#terminal-line-0)">&#160;—&#160;</text><text class="terminal-r3" x="585.6" y="20" textLength="146.4" clip-path="url(#terminal-line-0)">0.1.0&#160;·&#160;test</text><text class="terminal-r1" x="1098" y="20" textLength="12.2" clip-path="url(#terminal-line-0)">
</text><text class="terminal-r2" x="0" y="44.4" textLength="622.2" clip-path="url(#terminal-line-1)">repo&#160;r&#160;·&#160;latest&#160;assessed&#160;—&#160;·&#160;store&#160;chain&#160;ok&#160;·&#160;0&#160;asm</text><text class="terminal-r1" x="1098" y="44.4" textLength="12.2" clip-path="url(#terminal-line-1)">
</text><text class="terminal-r4" x="0" y="68.8" textLength="48.8" clip-path="url(#terminal-line-2)">&#160;ID&#160;</text><text class="terminal-r4" x="48.8" y="68.8" textLength="244" clip-path="url(#terminal-line-2)">&#160;target&#160;&#160;&#160;&#160;&#160;&#160;&#160;&#160;&#160;&#160;&#160;&#160;&#160;</text><text class="terminal-r4" x="292.8" y="68.8" textLength="244" clip-path="url(#terminal-line-2)">&#160;decision&#160;&#160;&#160;&#160;&#160;&#160;&#160;&#160;&#160;&#160;&#160;</text><text class="terminal-r4" x="536.8" y="68.8" textLength="61" clip-path="url(#terminal-line-2)">&#160;RAU&#160;</text><text class="terminal-r4" x="597.8" y="68.8" textLength="73.2" clip-path="url(#terminal-line-2)">&#160;loss&#160;</text><text class="terminal-r4" x="671" y="68.8" textLength="109.8" clip-path="url(#terminal-line-2)">&#160;benefit&#160;</text><text class="terminal-r4" x="780.8" y="68.8" textLength="97.6" clip-path="url(#terminal-line-2)">&#160;status&#160;</text><text class="terminal-r4" x="878.4" y="68.8" textLength="85.4" clip-path="url(#terminal-line-2)">&#160;prior&#160;</text><text class="terminal-r4" x="963.8" y="68.8" textLength="97.6" clip-path="url(#terminal-line-2)">&#160;lesson&#160;</text><text class="terminal-r4" x="1061.4" y="68.8" textLength="36.6" clip-path="url(#terminal-line-2)">&#160;ta</text><text class="terminal-r1" x="1098" y="68.8" textLength="12.2" clip-path="url(#terminal-line-2)">
</text><text class="terminal-r1" x="1098" y="93.2" textLength="12.2" clip-path="url(#terminal-line-3)">
</text><text class="terminal-r1" x="1098" y="117.6" textLength="12.2" clip-path="url(#terminal-line-4)">
</text><text class="terminal-r1" x="1098" y="142" textLength="12.2" clip-path="url(#terminal-line-5)">
</text><text class="terminal-r1" x="1098" y="166.4" textLength="12.2" clip-path="url(#terminal-line-6)">
</text><text class="terminal-r1" x="1098" y="190.8" textLength="12.2" clip-path="url(#terminal-line-7)">
</text><text class="terminal-r1" x="1098" y="215.2" textLength="12.2" clip-path="url(#terminal-line-8)">
</text><text class="terminal-r1" x="1098" y="239.6" textLength="12.2" clip-path="url(#terminal-line-9)">
</text><text class="terminal-r1" x="1098" y="264" textLength="12.2" clip-path="url(#terminal-line-10)">
</text><text class="terminal-r1" x="1098" y="288.4" textLength="12.2" clip-path="url(#terminal-line-11)">
</text><text class="terminal-r1" x="1098" y="312.8" textLength="12.2" clip-path="url(#terminal-line-12)">
</text><text class="terminal-r6" x="597.8" y="337.2" textLength="12.2" clip-path="url(#terminal-line-13)">▊</text><text class="terminal-r1" x="1098" y="337.2" textLength="12.2" clip-path="url(#terminal-line-13)">
</text><text class="terminal-r7" x="0" y="361.6" textLength="329.4" clip-path="url(#terminal-line-14)">←/→&#160;more&#160;columns&#160;·&#160;Home/End</text><text class="terminal-r1" x="1098" y="361.6" textLength="12.2" clip-path="url(#terminal-line-14)">
</text><text class="terminal-r2" x="0" y="386" textLength="36.6" clip-path="url(#terminal-line-15)">RAU</text><text class="terminal-r8" x="170.8" y="386" textLength="488" clip-path="url(#terminal-line-15)">▁▁▁▁▁▁▁▁▁▁▁▁▁▁▁▁▁▁▁▁▁▁▁▁▁▁▁▁▁▁▁▁▁▁▁▁▁▁▁▁</text><text class="terminal-r2" x="658.8" y="386" textLength="12.2" clip-path="url(#terminal-line-15)">—</text><text class="terminal-r1" x="1098" y="386" textLength="12.2" clip-path="url(#terminal-line-15)">
</text><text class="terminal-r2" x="0" y="410.4" textLength="158.6" clip-path="url(#terminal-line-16)">Expected&#160;loss</text><text class="terminal-r8" x="170.8" y="410.4" textLength="488" clip-path="url(#terminal-line-16)">▁▁▁▁▁▁▁▁▁▁▁▁▁▁▁▁▁▁▁▁▁▁▁▁▁▁▁▁▁▁▁▁▁▁▁▁▁▁▁▁</text><text class="terminal-r2" x="658.8" y="410.4" textLength="12.2" clip-path="url(#terminal-line-16)">—</text><text class="terminal-r1" x="1098" y="410.4" textLength="12.2" clip-path="url(#terminal-line-16)">
</text><text class="terminal-r2" x="0" y="434.8" textLength="85.4" clip-path="url(#terminal-line-17)">Benefit</text><text class="terminal-r8" x="170.8" y="434.8" textLength="488" clip-path="url(#terminal-line-17)">▁▁▁▁▁▁▁▁▁▁▁▁▁▁▁▁▁▁▁▁▁▁▁▁▁▁▁▁▁▁▁▁▁▁▁▁▁▁▁▁</text><text class="terminal-r2" x="658.8" y="434.8" textLength="12.2" clip-path="url(#terminal-line-17)">—</text><text class="terminal-r1" x="1098" y="434.8" textLength="12.2" clip-path="url(#terminal-line-17)">
</text><text class="terminal-r2" x="0" y="459.2" textLength="585.6" clip-path="url(#terminal-line-18)">No&#160;assessments&#160;recorded&#160;for&#160;this&#160;repository&#160;yet.</text><text class="terminal-r1" x="1098" y="459.2" textLength="12.2" clip-path="url(#terminal-line-18)">
</text><text class="terminal-r9" x="0" y="483.6" textLength="36.6" clip-path="url(#terminal-line-19)">&#160;r&#160;</text><text class="terminal-r2" x="36.6" y="483.6" textLength="97.6" clip-path="url(#terminal-line-19)">Refresh&#160;</text><text class="terminal-r9" x="134.2" y="483.6" textLength="36.6" clip-path="url(#terminal-line-19)">&#160;g&#160;</text><text class="terminal-r2" x="170.8" y="483.6" textLength="170.8" clip-path="url(#terminal-line-19)">Group&#160;repeats&#160;</text><text class="terminal-r9" x="341.6" y="483.6" textLength="36.6" clip-path="url(#terminal-line-19)">&#160;q&#160;</text><text class="terminal-r2" x="378.2" y="483.6" textLength="61" clip-path="url(#terminal-line-19)">Quit&#160;</text><text class="terminal-r9" x="439.2" y="483.6" textLength="36.6" clip-path="url(#terminal-line-19)">&#160;?&#160;</text><text class="terminal-r2" x="475.8" y="483.6" textLength="158.6" clip-path="url(#terminal-line-19)">pebra&#160;--help&#160;</text><text class="terminal-r10" x="951.6" y="483.6" textLength="12.2" clip-path="url(#terminal-line-19)">▏</text><text class="terminal-r9" x="963.8" y="483.6" textLength="24.4" clip-path="url(#terminal-line-19)">^p</text><text class="terminal-r2" x="988.2" y="483.6" textLength="97.6" clip-path="url(#terminal-line-19)">&#160;palette</text>
    </g>
    </g>
</svg>
