<svg class="rich-terminal" viewBox="0 0 1238 782.0" xmlns="http://www.w3.org/2000/svg">
    <!-- Generated with Rich https://www.textualize.io -->
    <style>

    @font-face {
        font-family: "Fira Code";
        src: local("FiraCode-Regular"),
                url("https://cdnjs.cloudflare.com/ajax/libs/firacode/6.2.0/woff2/FiraCode-Regular.woff2") format("woff2"),
                url("https://cdnjs.cloudflare.com/ajax/libs/firacode/6.2.0/woff/FiraCode-Regular.woff") format("woff");
        font-style: normal;
        font-weight: 400;
    }
    @font-face {
        font-family: "Fira Code";
        src: local("FiraCode-Bold"),
                url("https://cdnjs.cloudflare.com/ajax/libs/firacode/6.2.0/woff2/FiraCode-Bold.woff2") format("woff2"),
                url("https://cdnjs.cloudflare.com/ajax/libs/firacode/6.2.0/woff/FiraCode-Bold.woff") format("woff");
        font-style: bold;
        font-weight: 700;
    }

    .terminal-matrix {
        font-family: Fira Code, monospace;
        font-size: 20px;
        line-height: 24.4px;
        font-variant-east-asian: full-width;
    }

    .terminal-title {
        font-size: 18px;
        font-weight: bold;
        font-family: arial;
    }

    .terminal-r1 { fill: #c5c8c6 }
.terminal-r2 { fill: #e0e0e0 }
.terminal-r3 { fill: #a0a3a6 }
.terminal-r4 { fill: #6b727c }
.terminal-r5 { fill: #e0e0e0;font-weight: bold }
.terminal-r6 { fill: #ffa62b;font-weight: bold }
.terminal-r7 { fill: #495259 }
    </style>

    <defs>
    <clipPath id="terminal-clip-terminal">
      <rect x="0" y="0" width="1219.0" height="731.0" />
    </clipPath>
    <clipPath id="terminal-line-0">
    <rect x="0" y="1.5" width="1220" height="24.65"/>
            </clipPath>
<clipPath id="terminal-line-1">
    <rect x="0" y="25.9" width="1220" height="24.65"/>
            </clipPath>
<clipPath id="terminal-line-2">
    <rect x="0" y="50.3" width="1220" height="24.65"/>
            </clipPath>
<clipPath id="terminal-line-3">
    <rect x="0" y="74.7" width="1220" height="24.65"/>
            </clipPath>
<clipPath id="terminal-line-4">
    <rect x="0" y="99.1" width="1220" height="24.65"/>
            </clipPath>
<clipPath id="terminal-line-5">
    <rect x="0" y="123.5" width="1220" height="24.65"/>
            </clipPath>
<clipPath id="terminal-line-6">
    <rect x="0" y="147.9" width="1220" height="24.65"/>
            </clipPath>
<clipPath id="terminal-line-7">
    <rect x="0" y="172.3" width="1220" height="24.65"/>
            </clipPath>
<clipPath id="terminal-line-8">
    <rect x="0" y="196.7" width="1220" height="24.65"/>
            </clipPath>
<clipPath id="terminal-line-9">
    <rect x="0" y="221.1" width="1220" height="24.65"/>
            </clipPath>
<clipPath id="terminal-line-10">
    <rect x="0" y="245.5" width="1220" height="24.65"/>
            </clipPath>
<clipPath id="terminal-line-11">
    <rect x="0" y="269.9" width="1220" height="24.65"/>
            </clipPath>
<clipPath id="terminal-line-12">
    <rect x="0" y="294.3" width="1220" height="24.65"/>
            </clipPath>
<clipPath id="terminal-line-13">
    <rect x="0" y="318.7" width="1220" height="24.65"/>
            </clipPath>
<clipPath id="terminal-line-14">
    <rect x="0" y="343.1" width="1220" height="24.65"/>
            </clipPath>
<clipPath id="terminal-line-15">
    <rect x="0" y="367.5" width="1220" height="24.65"/>
            </clipPath>
<clipPath id="terminal-line-16">
    <rect x="0" y="391.9" width="1220" height="24.65"/>
            </clipPath>
<clipPath id="terminal-line-17">
    <rect x="0" y="416.3" width="1220" height="24.65"/>
            </clipPath>
<clipPath id="terminal-line-18">
    <rect x="0" y="440.7" width="1220" height="24.65"/>
            </clipPath>
<clipPath id="terminal-line-19">
    <rect x="0" y="465.1" width="1220" height="24.65"/>
            </clipPath>
<clipPath id="terminal-line-20">
    <rect x="0" y="489.5" width="1220" height="24.65"/>
            </clipPath>
<clipPath id="terminal-line-21">
    <rect x="0" y="513.9" width="1220" height="24.65"/>
            </clipPath>
<clipPath id="terminal-line-22">
    <rect x="0" y="538.3" width="1220" height="24.65"/>
            </clipPath>
<clipPath id="terminal-line-23">
    <rect x="0" y="562.7" width="1220" height="24.65"/>
            </clipPath>
<clipPath id="terminal-line-24">
    <rect x="0" y="587.1" width="1220" height="24.65"/>
            </clipPath>
<clipPath id="terminal-line-25">
    <rect x="0" y="611.5" width="1220" height="24.65"/>
            </clipPath>
<clipPath id="terminal-line-26">
    <rect x="0" y="635.9" width="1220" height="24.65"/>
            </clipPath>
<clipPath id="terminal-line-27">
    <rect x="0" y="660.3" width="1220" height="24.65"/>
            </clipPath>
<clipPath id="terminal-line-28">
    <rect x="0" y="684.7" width="1220" height="24.65"/>
            </clipPath>
    </defs>

    <rect fill="#292929" stroke="rgba(255,255,255,0.35)" stroke-width="1" x="1" y="1" width="1236" height="780" rx="8"/><text class="terminal-title" fill="#c5c8c6" text-anchor="middle" x="618" y="27">PEBRA&#160;Observatory</text>
            <g transform="translate(26,22)">
            <circle cx="0" cy="0" r="7" fill="#ff5f57"/>
            <circle cx="22" cy="0" r="7" fill="#febc2e"/>
            <circle cx="44" cy="0" r="7" fill="#28c840"/>
            </g>

    <g transform="translate(9, 41)" clip-path="url(#terminal-clip-terminal)">
    <rect fill="#242f38" x="0" y="1.5" width="12.2" height="24.65" shape-rendering="crispEdges"/><rect fill="#242f38" x="12.2" y="1.5" width="12.2" height="24.65" shape-rendering="crispEdges"/><rect fill="#242f38" x="24.4" y="1.5" width="61" height="24.65" shape-rendering="crispEdges"/><rect fill="#242f38" x="85.4" y="1.5" width="12.2" height="24.65" shape-rendering="crispEdges"/><rect fill="#242f38" x="97.6" y="1.5" width="305" height="24.65" shape-rendering="crispEdges"/><rect fill="#242f38" x="402.6" y="1.5" width="207.4" height="24.65" shape-rendering="crispEdges"/><rect fill="#242f38" x="610" y="1.5" width="36.6" height="24.65" shape-rendering="crispEdges"/><rect fill="#242f38" x="646.6" y="1.5" width="146.4" height="24.65" shape-rendering="crispEdges"/><rect fill="#242f38" x="793" y="1.5" width="305" height="24.65" shape-rendering="crispEdges"/><rect fill="#242f38" x="1098" y="1.5" width="12.2" height="24.65" shape-rendering="crispEdges"/><rect fill="#242f38" x="1110.2" y="1.5" width="0" height="24.65" shape-rendering="crispEdges"/><rect fill="#242f38" x="1110.2" y="1.5" width="109.8" height="24.65" shape-rendering="crispEdges"/><rect fill="#121212" x="0" y="25.9" width="341.6" height="24.65" shape-rendering="crispEdges"/><rect fill="#121212" x="341.6" y="25.9" width="878.4" height="24.65" shape-rendering="crispEdges"/><rect fill="#121212" x="0" y="50.3" width="109.8" height="24.65" shape-rendering="crispEdges"/><rect fill="#121212" x="109.8" y="50.3" width="1110.2" height="24.65" shape-rendering="crispEdges"/><rect fill="#121212" x="0" y="74.7" width="1220" height="24.65" shape-rendering="crispEdges"/><rect fill="#242f38" x="0" y="99.1" width="122" height="24.65" shape-rendering="crispEdges"/><rect fill="#242f38" x="122" y="99.1" width="97.6" height="24.65" shape-rendering="crispEdges"/><rect fill="#242f38" x="219.6" y="99.1" width="109.8" height="24.65" shape-rendering="crispEdges"/><rect fill="#242f38" x="329.4" y="99.1" width="134.2" height="24.65" shape-rendering="crispEdges"/><rect fill="#242f38" x="463.6" y="99.1" width="134.2" height="24.65" shape-rendering="crispEdges"/><rect fill="#242f38" x="597.8" y="99.1" width="622.2" height="24.65" shape-rendering="crispEdges"/><rect fill="#153854" x="0" y="123.5" width="122" height="24.65" shape-rendering="crispEdges"/><rect fill="#153854" x="122" y="123.5" width="97.6" height="24.65" shape-rendering="crispEdges"/><rect fill="#153854" x="219.6" y="123.5" width="109.8" height="24.65" shape-rendering="crispEdges"/><rect fill="#153854" x="329.4" y="123.5" width="134.2" height="24.65" shape-rendering="crispEdges"/><rect fill="#153854" x="463.6" y="123.5" width="134.2" height="24.65" shape-rendering="crispEdges"/><rect fill="#153854" x="597.8" y="123.5" width="622.2" height="24.65" shape-rendering="crispEdges"/><rect fill="#1e1e1e" x="0" y="147.9" width="1220" height="24.65" shape-rendering="crispEdges"/><rect fill="#121212" x="0" y="172.3" width="158.6" height="24.65" shape-rendering="crispEdges"/><rect fill="#121212" x="158.6" y="172.3" width="1061.4" height="24.65" shape-rendering="crispEdges"/><rect fill="#121212" x="0" y="196.7" width="1220" height="24.65" shape-rendering="crispEdges"/><rect fill="#242f38" x="0" y="221.1" width="73.2" height="24.65" shape-rendering="crispEdges"/><rect fill="#242f38" x="73.2" y="221.1" width="122" height="24.65" shape-rendering="crispEdges"/><rect fill="#242f38" x="195.2" y="221.1" width="97.6" height="24.65" shape-rendering="crispEdges"/><rect fill="#242f38" x="292.8" y="221.1" width="97.6" height="24.65" shape-rendering="crispEdges"/><rect fill="#242f38" x="390.4" y="221.1" width="109.8" height="24.65" shape-rendering="crispEdges"/><rect fill="#242f38" x="500.2" y="221.1" width="719.8" height="24.65" shape-rendering="crispEdges"/><rect fill="#153854" x="0" y="245.5" width="73.2" height="24.65" shape-rendering="crispEdges"/><rect fill="#153854" x="73.2" y="245.5" width="122" height="24.65" shape-rendering="crispEdges"/><rect fill="#153854" x="195.2" y="245.5" width="97.6" height="24.65" shape-rendering="crispEdges"/><rect fill="#153854" x="292.8" y="245.5" width="97.6" height="24.65" shape-rendering="crispEdges"/><rect fill="#153854" x="390.4" y="245.5" width="109.8" height="24.65" shape-rendering="crispEdges"/><rect fill="#153854" x="500.2" y="245.5" width="719.8" height="24.65" shape-rendering="crispEdges"/><rect fill="#1e1e1e" x="0" y="269.9" width="1220" height="24.65" shape-rendering="crispEdges"/><rect fill="#121212" x="0" y="294.3" width="195.2" height="24.65" shape-rendering="crispEdges"/><rect fill="#121212" x="195.2" y="294.3" width="1024.8" height="24.65" shape-rendering="crispEdges"/><rect fill="#121212" x="0" y="318.7" width="1220" height="24.65" shape-rendering="crispEdges"/><rect fill="#242f38" x="0" y="343.1" width="97.6" height="24.65" shape-rendering="crispEdges"/><rect fill="#242f38" x="97.6" y="343.1" width="146.4" height="24.65" shape-rendering="crispEdges"/><rect fill="#242f38" x="244" y="343.1" width="73.2" height="24.65" shape-rendering="crispEdges"/><rect fill="#242f38" x="317.2" y="343.1" width="219.6" height="24.65" shape-rendering="crispEdges"/><rect fill="#242f38" x="536.8" y="343.1" width="109.8" height="24.65" shape-rendering="crispEdges"/><rect fill="#242f38" x="646.6" y="343.1" width="573.4" height="24.65" shape-rendering="crispEdges"/><rect fill="#1e1e1e" x="0" y="367.5" width="1220" height="24.65" shape-rendering="crispEdges"/><rect fill="#1e1e1e" x="0" y="391.9" width="1220" height="24.65" shape-rendering="crispEdges"/><rect fill="#121212" x="0" y="416.3" width="829.6" height="24.65" shape-rendering="crispEdges"/><rect fill="#121212" x="829.6" y="416.3" width="390.4" height="24.65" shape-rendering="crispEdges"/><rect fill="#121212" x="0" y="440.7" width="1220" height="24.65" shape-rendering="crispEdges"/><rect fill="#121212" x="0" y="465.1" width="1220" height="24.65" shape-rendering="crispEdges"/><rect fill="#121212" x="0" y="489.5" width="1220" height="24.65" shape-rendering="crispEdges"/><rect fill="#121212" x="0" y="513.9" width="1220" height="24.65" shape-rendering="crispEdges"/><rect fill="#121212" x="0" y="538.3" width="1220" height="24.65" shape-rendering="crispEdges"/><rect fill="#121212" x="0" y="562.7" width="1220" height="24.65" shape-rendering="crispEdges"/><rect fill="#121212" x="0" y="587.1" width="1220" height="24.65" shape-rendering="crispEdges"/><rect fill="#121212" x="0" y="611.5" width="1220" height="24.65" shape-rendering="crispEdges"/><rect fill="#121212" x="0" y="635.9" width="1220" height="24.65" shape-rendering="crispEdges"/><rect fill="#121212" x="0" y="660.3" width="1220" height="24.65" shape-rendering="crispEdges"/><rect fill="#121212" x="0" y="684.7" width="1220" height="24.65" shape-rendering="crispEdges"/><rect fill="#242f38" x="0" y="709.1" width="61" height="24.65" shape-rendering="crispEdges"/><rect fill="#242f38" x="61" y="709.1" width="61" height="24.65" shape-rendering="crispEdges"/><rect fill="#242f38" x="122" y="709.1" width="36.6" height="24.65" shape-rendering="crispEdges"/><rect fill="#242f38" x="158.6" y="709.1" width="97.6" height="24.65" shape-rendering="crispEdges"/><rect fill="#242f38" x="256.2" y="709.1" width="36.6" height="24.65" shape-rendering="crispEdges"/><rect fill="#242f38" x="292.8" y="709.1" width="61" height="24.65" shape-rendering="crispEdges"/><rect fill="#242f38" x="353.8" y="709.1" width="36.6" height="24.65" shape-rendering="crispEdges"/><rect fill="#242f38" x="390.4" y="709.1" width="158.6" height="24.65" shape-rendering="crispEdges"/><rect fill="#242f38" x="549" y="709.1" width="524.6" height="24.65" shape-rendering="crispEdges"/><rect fill="#242f38" x="1073.6" y="709.1" width="12.2" height="24.65" shape-rendering="crispEdges"/><rect fill="#242f38" x="1085.8" y="709.1" width="24.4" height="24.65" shape-rendering="crispEdges"/><rect fill="#242f38" x="1110.2" y="709.1" width="97.6" height="24.65" shape-rendering="crispEdges"/><rect fill="#242f38" x="1207.8" y="709.1" width="12.2" height="24.65" shape-rendering="crispEdges"/>
    <g class="terminal-matrix">
    <text class="terminal-r2" x="12.2" y="20" textLength="12.2" clip-path="url(#terminal-line-0)">⭘</text><text class="terminal-r2" x="402.6" y="20" textLength="207.4" clip-path="url(#terminal-line-0)">PEBRA&#160;Observatory</text><text class="terminal-r3" x="610" y="20" textLength="36.6" clip-path="url(#terminal-line-0)">&#160;—&#160;</text><text class="terminal-r3" x="646.6" y="20" textLength="146.4" clip-path="url(#terminal-line-0)">0.1.0&#160;·&#160;test</text><text class="terminal-r1" x="1220" y="20" textLength="12.2" clip-path="url(#terminal-line-0)">
</text><text class="terminal-r4" x="0" y="44.4" textLength="341.6" clip-path="url(#terminal-line-1)">Persisted&#160;learning&#160;lifecycle</text><text class="terminal-r1" x="1220" y="44.4" textLength="12.2" clip-path="url(#terminal-line-1)">
</text><text class="terminal-r2" x="0" y="68.8" textLength="109.8" clip-path="url(#terminal-line-2)">Snapshots</text><text class="terminal-r1" x="1220" y="68.8" textLength="12.2" clip-path="url(#terminal-line-2)">
</text><text class="terminal-r1" x="1220" y="93.2" textLength="12.2" clip-path="url(#terminal-line-3)">
</text><text class="terminal-r5" x="0" y="117.6" textLength="122" clip-path="url(#terminal-line-4)">&#160;snapshot&#160;</text><text class="terminal-r5" x="122" y="117.6" textLength="97.6" clip-path="url(#terminal-line-4)">&#160;status&#160;</text><text class="terminal-r5" x="219.6" y="117.6" textLength="109.8" clip-path="url(#terminal-line-4)">&#160;created&#160;</text><text class="terminal-r5" x="329.4" y="117.6" textLength="134.2" clip-path="url(#terminal-line-4)">&#160;activated&#160;</text><text class="terminal-r5" x="463.6" y="117.6" textLength="134.2" clip-path="url(#terminal-line-4)">&#160;promotion&#160;</text><text class="terminal-r1" x="1220" y="117.6" textLength="12.2" clip-path="url(#terminal-line-4)">
</text><text class="terminal-r2" x="0" y="142" textLength="122" clip-path="url(#terminal-line-5)">&#160;rs_7&#160;&#160;&#160;&#160;&#160;</text><text class="terminal-r2" x="122" y="142" textLength="97.6" clip-path="url(#terminal-line-5)">&#160;active&#160;</text><text class="terminal-r2" x="219.6" y="142" textLength="109.8" clip-path="url(#terminal-line-5)">&#160;2026-07&#160;</text><text class="terminal-r2" x="329.4" y="142" textLength="134.2" clip-path="url(#terminal-line-5)">&#160;2026-07-2&#160;</text><text class="terminal-r2" x="463.6" y="142" textLength="134.2" clip-path="url(#terminal-line-5)">&#160;verified&#160;&#160;</text><text class="terminal-r1" x="1220" y="142" textLength="12.2" clip-path="url(#terminal-line-5)">
</text><text class="terminal-r1" x="1220" y="166.4" textLength="12.2" clip-path="url(#terminal-line-6)">
</text><text class="terminal-r2" x="0" y="190.8" textLength="158.6" clip-path="url(#terminal-line-7)">Learned&#160;facts</text><text class="terminal-r1" x="1220" y="190.8" textLength="12.2" clip-path="url(#terminal-line-7)">
</text><text class="terminal-r1" x="1220" y="215.2" textLength="12.2" clip-path="url(#terminal-line-8)">
</text><text class="terminal-r5" x="0" y="239.6" textLength="73.2" clip-path="url(#terminal-line-9)">&#160;fact&#160;</text><text class="terminal-r5" x="73.2" y="239.6" textLength="122" clip-path="url(#terminal-line-9)">&#160;snapshot&#160;</text><text class="terminal-r5" x="195.2" y="239.6" textLength="97.6" clip-path="url(#terminal-line-9)">&#160;target&#160;</text><text class="terminal-r5" x="292.8" y="239.6" textLength="97.6" clip-path="url(#terminal-line-9)">&#160;status&#160;</text><text class="terminal-r5" x="390.4" y="239.6" textLength="109.8" clip-path="url(#terminal-line-9)">&#160;created&#160;</text><text class="terminal-r1" x="1220" y="239.6" textLength="12.2" clip-path="url(#terminal-line-9)">
</text><text class="terminal-r2" x="0" y="264" textLength="73.2" clip-path="url(#terminal-line-10)">&#160;lrf_&#160;</text><text class="terminal-r2" x="73.2" y="264" textLength="122" clip-path="url(#terminal-line-10)">&#160;rs_7&#160;&#160;&#160;&#160;&#160;</text><text class="terminal-r2" x="195.2" y="264" textLength="97.6" clip-path="url(#terminal-line-10)">&#160;p_succ&#160;</text><text class="terminal-r2" x="292.8" y="264" textLength="97.6" clip-path="url(#terminal-line-10)">&#160;active&#160;</text><text class="terminal-r2" x="390.4" y="264" textLength="109.8" clip-path="url(#terminal-line-10)">&#160;2026-07&#160;</text><text class="terminal-r1" x="1220" y="264" textLength="12.2" clip-path="url(#terminal-line-10)">
</text><text class="terminal-r1" x="1220" y="288.4" textLength="12.2" clip-path="url(#terminal-line-11)">
</text><text class="terminal-r2" x="0" y="312.8" textLength="195.2" clip-path="url(#terminal-line-12)">Verified&#160;lessons</text><text class="terminal-r1" x="1220" y="312.8" textLength="12.2" clip-path="url(#terminal-line-12)">
</text><text class="terminal-r1" x="1220" y="337.2" textLength="12.2" clip-path="url(#terminal-line-13)">
</text><text class="terminal-r5" x="0" y="361.6" textLength="97.6" clip-path="url(#terminal-line-14)">&#160;lesson&#160;</text><text class="terminal-r5" x="97.6" y="361.6" textLength="146.4" clip-path="url(#terminal-line-14)">&#160;assessment&#160;</text><text class="terminal-r5" x="244" y="361.6" textLength="73.2" clip-path="url(#terminal-line-14)">&#160;task&#160;</text><text class="terminal-r5" x="317.2" y="361.6" textLength="219.6" clip-path="url(#terminal-line-14)">&#160;verified&#160;outcome&#160;</text><text class="terminal-r5" x="536.8" y="361.6" textLength="109.8" clip-path="url(#terminal-line-14)">&#160;created&#160;</text><text class="terminal-r1" x="1220" y="361.6" textLength="12.2" clip-path="url(#terminal-line-14)">
</text><text class="terminal-r1" x="1220" y="386" textLength="12.2" clip-path="url(#terminal-line-15)">
</text><text class="terminal-r1" x="1220" y="410.4" textLength="12.2" clip-path="url(#terminal-line-16)">
</text><text class="terminal-r2" x="0" y="434.8" textLength="829.6" clip-path="url(#terminal-line-17)">No&#160;verified&#160;completed&#160;outcomes&#160;have&#160;produced&#160;recallable&#160;lessons&#160;yet.</text><text class="terminal-r1" x="1220" y="434.8" textLength="12.2" clip-path="url(#terminal-line-17)">
</text><text class="terminal-r1" x="1220" y="459.2" textLength="12.2" clip-path="url(#terminal-line-18)">
</text><text class="terminal-r1" x="1220" y="483.6" textLength="12.2" clip-path="url(#terminal-line-19)">
</text><text class="terminal-r1" x="1220" y="508" textLength="12.2" clip-path="url(#terminal-line-20)">
</text><text class="terminal-r1" x="1220" y="532.4" textLength="12.2" clip-path="url(#terminal-line-21)">
</text><text class="terminal-r1" x="1220" y="556.8" textLength="12.2" clip-path="url(#terminal-line-22)">
</text><text class="terminal-r1" x="1220" y="581.2" textLength="12.2" clip-path="url(#terminal-line-23)">
</text><text class="terminal-r1" x="1220" y="605.6" textLength="12.2" clip-path="url(#terminal-line-24)">
</text><text class="terminal-r1" x="1220" y="630" textLength="12.2" clip-path="url(#terminal-line-25)">
</text><text class="terminal-r1" x="1220" y="654.4" textLength="12.2" clip-path="url(#terminal-line-26)">
</text><text class="terminal-r1" x="1220" y="678.8" textLength="12.2" clip-path="url(#terminal-line-27)">
</text><text class="terminal-r1" x="1220" y="703.2" textLength="12.2" clip-path="url(#terminal-line-28)">
</text><text class="terminal-r6" x="0" y="727.6" textLength="61" clip-path="url(#terminal-line-29)">&#160;esc&#160;</text><text class="terminal-r2" x="61" y="727.6" textLength="61" clip-path="url(#terminal-line-29)">Back&#160;</text><text class="terminal-r6" x="122" y="727.6" textLength="36.6" clip-path="url(#terminal-line-29)">&#160;r&#160;</text><text class="terminal-r2" x="158.6" y="727.6" textLength="97.6" clip-path="url(#terminal-line-29)">Refresh&#160;</text><text class="terminal-r6" x="256.2" y="727.6" textLength="36.6" clip-path="url(#terminal-line-29)">&#160;q&#160;</text><text class="terminal-r2" x="292.8" y="727.6" textLength="61" clip-path="url(#terminal-line-29)">Quit&#160;</text><text class="terminal-r6" x="353.8" y="727.6" textLength="36.6" clip-path="url(#terminal-line-29)">&#160;?&#160;</text><text class="terminal-r2" x="390.4" y="727.6" textLength="158.6" clip-path="url(#terminal-line-29)">pebra&#160;--help&#160;</text><text class="terminal-r7" x="1073.6" y="727.6" textLength="12.2" clip-path="url(#terminal-line-29)">▏</text><text class="terminal-r6" x="1085.8" y="727.6" textLength="24.4" clip-path="url(#terminal-line-29)">^p</text><text class="terminal-r2" x="1110.2" y="727.6" textLength="97.6" clip-path="url(#terminal-line-29)">&#160;palette</text>
    </g>
    </g>
</svg>
