<svg class="rich-terminal" viewBox="0 0 994 635.5999999999999" xmlns="http://www.w3.org/2000/svg">
    <!-- Generated with Rich https://www.textualize.io -->
    <style>

    @font-face {
        font-family: "Fira Code";
        src: local("FiraCode-Regular"),
                url("https://cdnjs.cloudflare.com/ajax/libs/firacode/6.2.0/woff2/FiraCode-Regular.woff2") format("woff2"),
                url("https://cdnjs.cloudflare.com/ajax/libs/firacode/6.2.0/woff/FiraCode-Regular.woff") format("woff");
        font-style: normal;
        font-weight: 400;
    }
    @font-face {
        font-family: "Fira Code";
        src: local("FiraCode-Bold"),
                url("https://cdnjs.cloudflare.com/ajax/libs/firacode/6.2.0/woff2/FiraCode-Bold.woff2") format("woff2"),
                url("https://cdnjs.cloudflare.com/ajax/libs/firacode/6.2.0/woff/FiraCode-Bold.woff") format("woff");
        font-style: bold;
        font-weight: 700;
    }

    .terminal-matrix {
        font-family: Fira Code, monospace;
        font-size: 20px;
        line-height: 24.4px;
        font-variant-east-asian: full-width;
    }

    .terminal-title {
        font-size: 18px;
        font-weight: bold;
        font-family: arial;
    }

    .terminal-r1 { fill: #c5c8c6 }
.terminal-r2 { fill: #e0e0e0 }
.terminal-r3 { fill: #e0e0e0;font-weight: bold }
.terminal-r4 { fill: #ddedf9;font-weight: bold }
.terminal-r5 { fill: #e8873b }
.terminal-r6 { fill: #6fb0a0 }
.terminal-r7 { fill: #3fb950 }
.terminal-r8 { fill: #272727 }
.terminal-r9 { fill: #003054 }
.terminal-r10 { fill: #ffa62b;font-weight: bold }
.terminal-r11 { fill: #495259 }
    </style>

    <defs>
    <clipPath id="terminal-clip-terminal">
      <rect x="0" y="0" width="975.0" height="584.5999999999999" />
    </clipPath>
    <clipPath id="terminal-line-0">
    <rect x="0" y="1.5" width="976" height="24.65"/>
            </clipPath>
<clipPath id="terminal-line-1">
    <rect x="0" y="25.9" width="976" height="24.65"/>
            </clipPath>
<clipPath id="terminal-line-2">
    <rect x="0" y="50.3" width="976" height="24.65"/>
            </clipPath>
<clipPath id="terminal-line-3">
    <rect x="0" y="74.7" width="976" height="24.65"/>
            </clipPath>
<clipPath id="terminal-line-4">
    <rect x="0" y="99.1" width="976" height="24.65"/>
            </clipPath>
<clipPath id="terminal-line-5">
    <rect x="0" y="123.5" width="976" height="24.65"/>
            </clipPath>
<clipPath id="terminal-line-6">
    <rect x="0" y="147.9" width="976" height="24.65"/>
            </clipPath>
<clipPath id="terminal-line-7">
    <rect x="0" y="172.3" width="976" height="24.65"/>
            </clipPath>
<clipPath id="terminal-line-8">
    <rect x="0" y="196.7" width="976" height="24.65"/>
            </clipPath>
<clipPath id="terminal-line-9">
    <rect x="0" y="221.1" width="976" height="24.65"/>
            </clipPath>
<clipPath id="terminal-line-10">
    <rect x="0" y="245.5" width="976" height="24.65"/>
            </clipPath>
<clipPath id="terminal-line-11">
    <rect x="0" y="269.9" width="976" height="24.65"/>
            </clipPath>
<clipPath id="terminal-line-12">
    <rect x="0" y="294.3" width="976" height="24.65"/>
            </clipPath>
<clipPath id="terminal-line-13">
    <rect x="0" y="318.7" width="976" height="24.65"/>
            </clipPath>
<clipPath id="terminal-line-14">
    <rect x="0" y="343.1" width="976" height="24.65"/>
            </clipPath>
<clipPath id="terminal-line-15">
    <rect x="0" y="367.5" width="976" height="24.65"/>
            </clipPath>
<clipPath id="terminal-line-16">
    <rect x="0" y="391.9" width="976" height="24.65"/>
            </clipPath>
<clipPath id="terminal-line-17">
    <rect x="0" y="416.3" width="976" height="24.65"/>
            </clipPath>
<clipPath id="terminal-line-18">
    <rect x="0" y="440.7" width="976" height="24.65"/>
            </clipPath>
<clipPath id="terminal-line-19">
    <rect x="0" y="465.1" width="976" height="24.65"/>
            </clipPath>
<clipPath id="terminal-line-20">
    <rect x="0" y="489.5" width="976" height="24.65"/>
            </clipPath>
<clipPath id="terminal-line-21">
    <rect x="0" y="513.9" width="976" height="24.65"/>
            </clipPath>
<clipPath id="terminal-line-22">
    <rect x="0" y="538.3" width="976" height="24.65"/>
            </clipPath>
    </defs>

    <rect fill="#292929" stroke="rgba(255,255,255,0.35)" stroke-width="1" x="1" y="1" width="992" height="633.6" rx="8"/><text class="terminal-title" fill="#c5c8c6" text-anchor="middle" x="496" y="27">PEBRA&#160;Observatory</text>
            <g transform="translate(26,22)">
            <circle cx="0" cy="0" r="7" fill="#ff5f57"/>
            <circle cx="22" cy="0" r="7" fill="#febc2e"/>
            <circle cx="44" cy="0" r="7" fill="#28c840"/>
            </g>
        
    <g transform="translate(9, 41)" clip-path="url(#terminal-clip-terminal)">
    <rect fill="#242f38" x="0" y="1.5" width="12.2" height="24.65" shape-rendering="crispEdges"/><rect fill="#242f38" x="12.2" y="1.5" width="12.2" height="24.65" shape-rendering="crispEdges"/><rect fill="#242f38" x="24.4" y="1.5" width="61" height="24.65" shape-rendering="crispEdges"/><rect fill="#242f38" x="85.4" y="1.5" width="12.2" height="24.65" shape-rendering="crispEdges"/><rect fill="#242f38" x="97.6" y="1.5" width="268.4" height="24.65" shape-rendering="crispEdges"/><rect fill="#242f38" x="366" y="1.5" width="207.4" height="24.65" shape-rendering="crispEdges"/><rect fill="#242f38" x="573.4" y="1.5" width="280.6" height="24.65" shape-rendering="crispEdges"/><rect fill="#242f38" x="854" y="1.5" width="12.2" height="24.65" shape-rendering="crispEdges"/><rect fill="#242f38" x="866.2" y="1.5" width="0" height="24.65" shape-rendering="crispEdges"/><rect fill="#242f38" x="866.2" y="1.5" width="109.8" height="24.65" shape-rendering="crispEdges"/><rect fill="#121212" x="0" y="25.9" width="805.2" height="24.65" shape-rendering="crispEdges"/><rect fill="#121212" x="805.2" y="25.9" width="170.8" height="24.65" shape-rendering="crispEdges"/><rect fill="#2d3740" x="0" y="50.3" width="146.4" height="24.65" shape-rendering="crispEdges"/><rect fill="#2d3740" x="146.4" y="50.3" width="109.8" height="24.65" shape-rendering="crispEdges"/><rect fill="#2d3740" x="256.2" y="50.3" width="183" height="24.65" shape-rendering="crispEdges"/><rect fill="#2d3740" x="439.2" y="50.3" width="207.4" height="24.65" shape-rendering="crispEdges"/><rect fill="#2d3740" x="646.6" y="50.3" width="85.4" height="24.65" shape-rendering="crispEdges"/><rect fill="#2d3740" x="732" y="50.3" width="97.6" height="24.65" shape-rendering="crispEdges"/><rect fill="#2d3740" x="829.6" y="50.3" width="109.8" height="24.65" shape-rendering="crispEdges"/><rect fill="#2d3740" x="939.4" y="50.3" width="36.6" height="24.65" shape-rendering="crispEdges"/><rect fill="#0178d4" x="0" y="74.7" width="146.4" height="24.65" shape-rendering="crispEdges"/><rect fill="#0178d4" x="146.4" y="74.7" width="109.8" height="24.65" shape-rendering="crispEdges"/><rect fill="#0178d4" x="256.2" y="74.7" width="183" height="24.65" shape-rendering="crispEdges"/><rect fill="#0178d4" x="439.2" y="74.7" width="207.4" height="24.65" shape-rendering="crispEdges"/><rect fill="#0178d4" x="646.6" y="74.7" width="85.4" height="24.65" shape-rendering="crispEdges"/><rect fill="#0178d4" x="732" y="74.7" width="97.6" height="24.65" shape-rendering="crispEdges"/><rect fill="#0178d4" x="829.6" y="74.7" width="109.8" height="24.65" shape-rendering="crispEdges"/><rect fill="#0178d4" x="939.4" y="74.7" width="36.6" height="24.65" shape-rendering="crispEdges"/><rect fill="#272727" x="0" y="99.1" width="146.4" height="24.65" shape-rendering="crispEdges"/><rect fill="#272727" x="146.4" y="99.1" width="109.8" height="24.65" shape-rendering="crispEdges"/><rect fill="#272727" x="256.2" y="99.1" width="183" height="24.65" shape-rendering="crispEdges"/><rect fill="#272727" x="439.2" y="99.1" width="12.2" height="24.65" shape-rendering="crispEdges"/><rect fill="#272727" x="451.4" y="99.1" width="134.2" height="24.65" shape-rendering="crispEdges"/><rect fill="#272727" x="585.6" y="99.1" width="61" height="24.65" shape-rendering="crispEdges"/><rect fill="#272727" x="646.6" y="99.1" width="85.4" height="24.65" shape-rendering="crispEdges"/><rect fill="#272727" x="732" y="99.1" width="97.6" height="24.65" shape-rendering="crispEdges"/><rect fill="#272727" x="829.6" y="99.1" width="109.8" height="24.65" shape-rendering="crispEdges"/><rect fill="#272727" x="939.4" y="99.1" width="36.6" height="24.65" shape-rendering="crispEdges"/><rect fill="#1c1c1c" x="0" y="123.5" width="146.4" height="24.65" shape-rendering="crispEdges"/><rect fill="#1c1c1c" x="146.4" y="123.5" width="109.8" height="24.65" shape-rendering="crispEdges"/><rect fill="#1c1c1c" x="256.2" y="123.5" width="183" height="24.65" shape-rendering="crispEdges"/><rect fill="#1c1c1c" x="439.2" y="123.5" width="12.2" height="24.65" shape-rendering="crispEdges"/><rect fill="#1c1c1c" x="451.4" y="123.5" width="183" height="24.65" shape-rendering="crispEdges"/><rect fill="#1c1c1c" x="634.4" y="123.5" width="12.2" height="24.65" shape-rendering="crispEdges"/><rect fill="#1c1c1c" x="646.6" y="123.5" width="85.4" height="24.65" shape-rendering="crispEdges"/><rect fill="#1c1c1c" x="732" y="123.5" width="97.6" height="24.65" shape-rendering="crispEdges"/><rect fill="#1c1c1c" x="829.6" y="123.5" width="109.8" height="24.65" shape-rendering="crispEdges"/><rect fill="#1c1c1c" x="939.4" y="123.5" width="36.6" height="24.65" shape-rendering="crispEdges"/><rect fill="#272727" x="0" y="147.9" width="146.4" height="24.65" shape-rendering="crispEdges"/><rect fill="#272727" x="146.4" y="147.9" width="109.8" height="24.65" shape-rendering="crispEdges"/><rect fill="#272727" x="256.2" y="147.9" width="183" height="24.65" shape-rendering="crispEdges"/><rect fill="#272727" x="439.2" y="147.9" width="12.2" height="24.65" shape-rendering="crispEdges"/><rect fill="#272727" x="451.4" y="147.9" width="109.8" height="24.65" shape-rendering="crispEdges"/><rect fill="#272727" x="561.2" y="147.9" width="85.4" height="24.65" shape-rendering="crispEdges"/><rect fill="#272727" x="646.6" y="147.9" width="85.4" height="24.65" shape-rendering="crispEdges"/><rect fill="#272727" x="732" y="147.9" width="97.6" height="24.65" shape-rendering="crispEdges"/><rect fill="#272727" x="829.6" y="147.9" width="109.8" height="24.65" shape-rendering="crispEdges"/><rect fill="#272727" x="939.4" y="147.9" width="36.6" height="24.65" shape-rendering="crispEdges"/><rect fill="#003054" x="0" y="172.3" width="902.8" height="24.65" shape-rendering="crispEdges"/><rect fill="#000000" x="902.8" y="172.3" width="12.2" height="24.65" shape-rendering="crispEdges"/><rect fill="#000000" x="915" y="172.3" width="61" height="24.65" shape-rendering="crispEdges"/><rect fill="#121212" x="0" y="196.7" width="976" height="24.65" shape-rendering="crispEdges"/><rect fill="#121212" x="0" y="221.1" width="976" height="24.65" shape-rendering="crispEdges"/><rect fill="#121212" x="0" y="245.5" width="976" height="24.65" shape-rendering="crispEdges"/><rect fill="#121212" x="0" y="269.9" width="976" height="24.65" shape-rendering="crispEdges"/><rect fill="#121212" x="0" y="294.3" width="976" height="24.65" shape-rendering="crispEdges"/><rect fill="#121212" x="0" y="318.7" width="976" height="24.65" shape-rendering="crispEdges"/><rect fill="#121212" x="0" y="343.1" width="976" height="24.65" shape-rendering="crispEdges"/><rect fill="#121212" x="0" y="367.5" width="976" height="24.65" shape-rendering="crispEdges"/><rect fill="#121212" x="0" y="391.9" width="976" height="24.65" shape-rendering="crispEdges"/><rect fill="#121212" x="0" y="416.3" width="976" height="24.65" shape-rendering="crispEdges"/><rect fill="#121212" x="0" y="440.7" width="976" height="24.65" shape-rendering="crispEdges"/><rect fill="#121212" x="0" y="465.1" width="976" height="24.65" shape-rendering="crispEdges"/><rect fill="#121212" x="0" y="489.5" width="976" height="24.65" shape-rendering="crispEdges"/><rect fill="#121212" x="0" y="513.9" width="976" height="24.65" shape-rendering="crispEdges"/><rect fill="#121212" x="0" y="538.3" width="976" height="24.65" shape-rendering="crispEdges"/><rect fill="#242f38" x="0" y="562.7" width="36.6" height="24.65" shape-rendering="crispEdges"/><rect fill="#242f38" x="36.6" y="562.7" width="61" height="24.65" shape-rendering="crispEdges"/><rect fill="#242f38" x="97.6" y="562.7" width="732" height="24.65" shape-rendering="crispEdges"/><rect fill="#242f38" x="829.6" y="562.7" width="12.2" height="24.65" shape-rendering="crispEdges"/><rect fill="#242f38" x="841.8" y="562.7" width="24.4" height="24.65" shape-rendering="crispEdges"/><rect fill="#242f38" x="866.2" y="562.7" width="97.6" height="24.65" shape-rendering="crispEdges"/><rect fill="#242f38" x="963.8" y="562.7" width="12.2" height="24.65" shape-rendering="crispEdges"/>
    <g class="terminal-matrix">
    <text class="terminal-r2" x="12.2" y="20" textLength="12.2" clip-path="url(#terminal-line-0)">⭘</text><text class="terminal-r2" x="366" y="20" textLength="207.4" clip-path="url(#terminal-line-0)">PEBRA&#160;Observatory</text><text class="terminal-r1" x="976" y="20" textLength="12.2" clip-path="url(#terminal-line-0)">
</text><text class="terminal-r2" x="0" y="44.4" textLength="805.2" clip-path="url(#terminal-line-1)">repo&#160;r&#160;&#160;&#160;·&#160;&#160;&#160;HEAD&#160;dddd444&#160;&#160;&#160;·&#160;&#160;&#160;store&#160;chain&#160;ok&#160;&#160;&#160;·&#160;&#160;&#160;4&#160;assessments</text><text class="terminal-r1" x="976" y="44.4" textLength="12.2" clip-path="url(#terminal-line-1)">
</text><text class="terminal-r3" x="0" y="68.8" textLength="146.4" clip-path="url(#terminal-line-2)">&#160;assessment&#160;</text><text class="terminal-r3" x="146.4" y="68.8" textLength="109.8" clip-path="url(#terminal-line-2)">&#160;commit&#160;&#160;</text><text class="terminal-r3" x="256.2" y="68.8" textLength="183" clip-path="url(#terminal-line-2)">&#160;gate-lane&#160;&#160;&#160;&#160;&#160;</text><text class="terminal-r3" x="439.2" y="68.8" textLength="207.4" clip-path="url(#terminal-line-2)">&#160;decision&#160;&#160;&#160;&#160;&#160;&#160;&#160;&#160;</text><text class="terminal-r3" x="646.6" y="68.8" textLength="85.4" clip-path="url(#terminal-line-2)">&#160;rau&#160;&#160;&#160;</text><text class="terminal-r3" x="732" y="68.8" textLength="97.6" clip-path="url(#terminal-line-2)">&#160;e.loss&#160;</text><text class="terminal-r3" x="829.6" y="68.8" textLength="109.8" clip-path="url(#terminal-line-2)">&#160;benefit&#160;</text><text class="terminal-r3" x="939.4" y="68.8" textLength="36.6" clip-path="url(#terminal-line-2)">&#160;st</text><text class="terminal-r1" x="976" y="68.8" textLength="12.2" clip-path="url(#terminal-line-2)">
</text><text class="terminal-r4" x="0" y="93.2" textLength="146.4" clip-path="url(#terminal-line-3)">&#160;asm_4&#160;&#160;&#160;&#160;&#160;&#160;</text><text class="terminal-r4" x="146.4" y="93.2" textLength="109.8" clip-path="url(#terminal-line-3)">&#160;dddd444&#160;</text><text class="terminal-r4" x="256.2" y="93.2" textLength="183" clip-path="url(#terminal-line-3)">&#160;····●·│······&#160;</text><text class="terminal-r4" x="439.2" y="93.2" textLength="207.4" clip-path="url(#terminal-line-3)">&#160;✕&#160;Reject&#160;&#160;&#160;&#160;&#160;&#160;&#160;&#160;</text><text class="terminal-r4" x="646.6" y="93.2" textLength="85.4" clip-path="url(#terminal-line-3)">&#160;-0.31&#160;</text><text class="terminal-r4" x="732" y="93.2" textLength="97.6" clip-path="url(#terminal-line-3)">&#160;0.36&#160;&#160;&#160;</text><text class="terminal-r4" x="829.6" y="93.2" textLength="109.8" clip-path="url(#terminal-line-3)">&#160;0.20&#160;&#160;&#160;&#160;</text><text class="terminal-r4" x="939.4" y="93.2" textLength="36.6" clip-path="url(#terminal-line-3)">&#160;pe</text><text class="terminal-r1" x="976" y="93.2" textLength="12.2" clip-path="url(#terminal-line-3)">
</text><text class="terminal-r2" x="0" y="117.6" textLength="146.4" clip-path="url(#terminal-line-4)">&#160;asm_3&#160;&#160;&#160;&#160;&#160;&#160;</text><text class="terminal-r2" x="146.4" y="117.6" textLength="109.8" clip-path="url(#terminal-line-4)">&#160;cccc333&#160;</text><text class="terminal-r2" x="256.2" y="117.6" textLength="183" clip-path="url(#terminal-line-4)">&#160;·····●│······&#160;</text><text class="terminal-r5" x="451.4" y="117.6" textLength="134.2" clip-path="url(#terminal-line-4)">‖&#160;Ask&#160;human</text><text class="terminal-r2" x="646.6" y="117.6" textLength="85.4" clip-path="url(#terminal-line-4)">&#160;-0.14&#160;</text><text class="terminal-r2" x="732" y="117.6" textLength="97.6" clip-path="url(#terminal-line-4)">&#160;0.15&#160;&#160;&#160;</text><text class="terminal-r2" x="829.6" y="117.6" textLength="109.8" clip-path="url(#terminal-line-4)">&#160;0.53&#160;&#160;&#160;&#160;</text><text class="terminal-r2" x="939.4" y="117.6" textLength="36.6" clip-path="url(#terminal-line-4)">&#160;pe</text><text class="terminal-r1" x="976" y="117.6" textLength="12.2" clip-path="url(#terminal-line-4)">
</text><text class="terminal-r2" x="0" y="142" textLength="146.4" clip-path="url(#terminal-line-5)">&#160;asm_2&#160;&#160;&#160;&#160;&#160;&#160;</text><text class="terminal-r2" x="146.4" y="142" textLength="109.8" clip-path="url(#terminal-line-5)">&#160;bbbb222&#160;</text><text class="terminal-r2" x="256.2" y="142" textLength="183" clip-path="url(#terminal-line-5)">&#160;······│●·····&#160;</text><text class="terminal-r6" x="451.4" y="142" textLength="183" clip-path="url(#terminal-line-5)">◇&#160;Inspect&#160;first</text><text class="terminal-r2" x="646.6" y="142" textLength="85.4" clip-path="url(#terminal-line-5)">&#160;+0.15&#160;</text><text class="terminal-r2" x="732" y="142" textLength="97.6" clip-path="url(#terminal-line-5)">&#160;0.09&#160;&#160;&#160;</text><text class="terminal-r2" x="829.6" y="142" textLength="109.8" clip-path="url(#terminal-line-5)">&#160;0.40&#160;&#160;&#160;&#160;</text><text class="terminal-r2" x="939.4" y="142" textLength="36.6" clip-path="url(#terminal-line-5)">&#160;pe</text><text class="terminal-r1" x="976" y="142" textLength="12.2" clip-path="url(#terminal-line-5)">
</text><text class="terminal-r2" x="0" y="166.4" textLength="146.4" clip-path="url(#terminal-line-6)">&#160;asm_1&#160;&#160;&#160;&#160;&#160;&#160;</text><text class="terminal-r2" x="146.4" y="166.4" textLength="109.8" clip-path="url(#terminal-line-6)">&#160;aaaa111&#160;</text><text class="terminal-r2" x="256.2" y="166.4" textLength="183" clip-path="url(#terminal-line-6)">&#160;······│●·····&#160;</text><text class="terminal-r7" x="451.4" y="166.4" textLength="109.8" clip-path="url(#terminal-line-6)">▸&#160;Proceed</text><text class="terminal-r2" x="646.6" y="166.4" textLength="85.4" clip-path="url(#terminal-line-6)">&#160;+0.21&#160;</text><text class="terminal-r2" x="732" y="166.4" textLength="97.6" clip-path="url(#terminal-line-6)">&#160;0.05&#160;&#160;&#160;</text><text class="terminal-r2" x="829.6" y="166.4" textLength="109.8" clip-path="url(#terminal-line-6)">&#160;0.55&#160;&#160;&#160;&#160;</text><text class="terminal-r2" x="939.4" y="166.4" textLength="36.6" clip-path="url(#terminal-line-6)">&#160;pe</text><text class="terminal-r1" x="976" y="166.4" textLength="12.2" clip-path="url(#terminal-line-6)">
</text><text class="terminal-r9" x="902.8" y="190.8" textLength="12.2" clip-path="url(#terminal-line-7)">▌</text><text class="terminal-r1" x="976" y="190.8" textLength="12.2" clip-path="url(#terminal-line-7)">
</text><text class="terminal-r1" x="976" y="215.2" textLength="12.2" clip-path="url(#terminal-line-8)">
</text><text class="terminal-r1" x="976" y="239.6" textLength="12.2" clip-path="url(#terminal-line-9)">
</text><text class="terminal-r1" x="976" y="264" textLength="12.2" clip-path="url(#terminal-line-10)">
</text><text class="terminal-r1" x="976" y="288.4" textLength="12.2" clip-path="url(#terminal-line-11)">
</text><text class="terminal-r1" x="976" y="312.8" textLength="12.2" clip-path="url(#terminal-line-12)">
</text><text class="terminal-r1" x="976" y="337.2" textLength="12.2" clip-path="url(#terminal-line-13)">
</text><text class="terminal-r1" x="976" y="361.6" textLength="12.2" clip-path="url(#terminal-line-14)">
</text><text class="terminal-r1" x="976" y="386" textLength="12.2" clip-path="url(#terminal-line-15)">
</text><text class="terminal-r1" x="976" y="410.4" textLength="12.2" clip-path="url(#terminal-line-16)">
</text><text class="terminal-r1" x="976" y="434.8" textLength="12.2" clip-path="url(#terminal-line-17)">
</text><text class="terminal-r1" x="976" y="459.2" textLength="12.2" clip-path="url(#terminal-line-18)">
</text><text class="terminal-r1" x="976" y="483.6" textLength="12.2" clip-path="url(#terminal-line-19)">
</text><text class="terminal-r1" x="976" y="508" textLength="12.2" clip-path="url(#terminal-line-20)">
</text><text class="terminal-r1" x="976" y="532.4" textLength="12.2" clip-path="url(#terminal-line-21)">
</text><text class="terminal-r1" x="976" y="556.8" textLength="12.2" clip-path="url(#terminal-line-22)">
</text><text class="terminal-r10" x="0" y="581.2" textLength="36.6" clip-path="url(#terminal-line-23)">&#160;q&#160;</text><text class="terminal-r2" x="36.6" y="581.2" textLength="61" clip-path="url(#terminal-line-23)">Quit&#160;</text><text class="terminal-r11" x="829.6" y="581.2" textLength="12.2" clip-path="url(#terminal-line-23)">▏</text><text class="terminal-r10" x="841.8" y="581.2" textLength="24.4" clip-path="url(#terminal-line-23)">^p</text><text class="terminal-r2" x="866.2" y="581.2" textLength="97.6" clip-path="url(#terminal-line-23)">&#160;palette</text>
    </g>
    </g>
</svg>
